<svg xmlns="http://www.w3.org/2000/svg" width="440" height="107" viewBox="0 0 440 107" fill="none"><path d="M49.2027 93L46.3291 82.8182H48.3128L50.1473 90.3004H50.2417L52.2006 82.8182H54.0052L55.969 90.3054H56.0585L57.893 82.8182H59.8767L57.0031 93H55.1835L53.1452 85.8558H53.0656L51.0223 93H49.2027ZM63.6278 93.1491C62.882 93.1491 62.2357 92.9851 61.6888 92.657C61.142 92.3288 60.7177 91.8698 60.4161 91.2798C60.1178 90.6899 59.9687 90.0005 59.9687 89.2116C59.9687 88.4228 60.1178 87.7318 60.4161 87.1385C60.7177 86.5452 61.142 86.0845 61.6888 85.7564C62.2357 85.4283 62.882 85.2642 63.6278 85.2642C64.3735 85.2642 65.0198 85.4283 65.5667 85.7564C66.1135 86.0845 66.5361 86.5452 66.8344 87.1385C67.136 87.7318 67.2868 88.4228 67.2868 89.2116C67.2868 90.0005 67.136 90.6899 66.8344 91.2798C66.5361 91.8698 66.1135 92.3288 65.5667 92.657C65.0198 92.9851 64.3735 93.1491 63.6278 93.1491ZM63.6377 91.7074C64.0421 91.7074 64.3801 91.5964 64.6519 91.3743C64.9237 91.1489 65.1259 90.8473 65.2584 90.4695C65.3943 90.0916 65.4623 89.6707 65.4623 89.2067C65.4623 88.7393 65.3943 88.3168 65.2584 87.9389C65.1259 87.5578 64.9237 87.2545 64.6519 87.0291C64.3801 86.8037 64.0421 86.6911 63.6377 86.6911C63.2234 86.6911 62.8787 86.8037 62.6036 87.0291C62.3318 87.2545 62.128 87.5578 61.9921 87.9389C61.8595 88.3168 61.7932 88.7393 61.7932 89.2067C61.7932 89.6707 61.8595 90.0916 61.9921 90.4695C62.128 90.8473 62.3318 91.1489 62.6036 91.3743C62.8787 91.5964 63.2234 91.7074 63.6377 91.7074ZM68.8144 93V85.3636H70.5594V86.6364H70.6389C70.7781 86.1955 71.0168 85.8558 71.3548 85.6172C71.6962 85.3752 72.0857 85.2543 72.5232 85.2543C72.6226 85.2543 72.7336 85.2592 72.8563 85.2692C72.9822 85.2758 73.0866 85.2874 73.1695 85.304V86.9595C73.0932 86.933 72.9723 86.9098 72.8066 86.8899C72.6441 86.8667 72.4867 86.8551 72.3343 86.8551C72.0061 86.8551 71.7111 86.9264 71.4493 87.0689C71.1908 87.2081 70.9869 87.402 70.8378 87.6506C70.6887 87.8991 70.6141 88.1858 70.6141 88.5107V93H68.8144ZM76.8845 93.1342C76.2846 93.1342 75.7477 92.9801 75.2737 92.6719C74.7997 92.3636 74.4252 91.9162 74.1501 91.3295C73.875 90.7429 73.7375 90.0303 73.7375 89.1918C73.7375 88.3433 73.8767 87.6274 74.1551 87.044C74.4368 86.4574 74.8163 86.0149 75.2936 85.7166C75.7709 85.415 76.3028 85.2642 76.8895 85.2642C77.3369 85.2642 77.7048 85.3404 77.9932 85.4929C78.2815 85.642 78.5102 85.8227 78.6792 86.0348C78.8483 86.2436 78.9792 86.4408 79.072 86.6264H79.1466V82.8182H80.9513V93H79.1814V91.7969H79.072C78.9792 91.9825 78.845 92.1797 78.6693 92.3885C78.4936 92.594 78.2616 92.7696 77.9733 92.9155C77.6849 93.0613 77.322 93.1342 76.8845 93.1342ZM77.3866 91.6577C77.7678 91.6577 78.0926 91.5549 78.3611 91.3494C78.6295 91.1406 78.8334 90.8506 78.9726 90.4794C79.1118 90.1082 79.1814 89.6757 79.1814 89.1818C79.1814 88.688 79.1118 88.2588 78.9726 87.8942C78.8367 87.5296 78.6345 87.2462 78.366 87.044C78.1009 86.8419 77.7744 86.7408 77.3866 86.7408C76.9856 86.7408 76.6508 86.8452 76.3824 87.054C76.1139 87.2628 75.9117 87.5511 75.7758 87.919C75.6399 88.2869 75.572 88.7079 75.572 89.1818C75.572 89.6591 75.6399 90.085 75.7758 90.4595C75.915 90.8307 76.1189 91.1241 76.3873 91.3395C76.6591 91.5516 76.9922 91.6577 77.3866 91.6577Z" fill="black"/><g clip-path="url(#clip0_14319_21756)"><path d="M83.167 20H53.833C52.8207 20 52 20.8207 52 21.833V30L69 35L85 30V21.833C85 20.8207 84.1793 20 83.167 20Z" fill="#41A5EE"/><path d="M85 30H52V40L69 43L85 40V30Z" fill="#2B7CD3"/><path d="M52 40V50L68 52L85 50V40H52Z" fill="#185ABD"/><path d="M53.833 60H83.1671C84.1795 60 85.0001 59.1793 85.0001 58.167V50H52V58.167C52 59.1793 52.8207 60 53.833 60Z" fill="#103F91"/><path opacity="0.1" d="M64.167 28H52V53H64.167C65.178 52.9967 65.9967 52.178 66 51.167V29.833C65.9967 28.822 65.178 28.0033 64.167 28Z" fill="black"/><path opacity="0.2" d="M63.1669 29H52V54H63.1669C64.1779 53.9967 64.9966 53.178 64.9999 52.167V30.833C64.9966 29.822 64.1779 29.0033 63.1669 29Z" fill="black"/><path opacity="0.2" d="M63.1669 29H52V52H63.1669C64.1779 51.9967 64.9966 51.178 64.9999 50.167V30.833C64.9966 29.822 64.1779 29.0033 63.1669 29Z" fill="black"/><path opacity="0.2" d="M62.167 29H52V52H62.167C63.178 51.9967 63.9967 51.178 64 50.167V30.833C63.9967 29.822 63.178 29.0033 62.167 29Z" fill="black"/><path d="M43.833 29H62.167C63.1793 29 64 29.8207 64 30.833V49.167C64 50.1794 63.1793 51 62.167 51H43.833C42.8207 51 42 50.1794 42 49.167V30.833C42 29.8207 42.8207 29 43.833 29Z" fill="url(#paint0_linear_14319_21756)"/><path d="M49.5221 43.0579C49.5581 43.3409 49.5821 43.5869 49.593 43.7979H49.635C49.651 43.5979 49.6844 43.3569 49.735 43.0749C49.7857 42.7929 49.8314 42.5545 49.872 42.3599L51.8 34.0418H54.293L56.293 42.2349C56.4093 42.7443 56.4924 43.2607 56.5421 43.7809H56.5751C56.6123 43.2769 56.6818 42.7759 56.7831 42.2809L58.3781 34.0378H60.6471L57.845 45.9579H55.1941L53.2941 38.0638C53.2391 37.8369 53.1761 37.5398 53.1071 37.1748C53.0381 36.8098 52.9951 36.5428 52.9781 36.3748H52.945C52.9231 36.5688 52.88 36.8568 52.816 37.2388C52.752 37.6209 52.7007 37.9035 52.662 38.0868L50.876 45.9559H48.18L45.363 34.0418H47.673L49.41 42.3769C49.449 42.5479 49.4861 42.7759 49.5221 43.0579Z" fill="white"/></g><path d="M151.444 94V83.8182H158.066V85.3643H153.288V88.1286H157.723V89.6747H153.288V92.4538H158.106V94H151.444ZM161.34 86.3636L162.881 89.1825L164.447 86.3636H166.351L164.049 90.1818L166.391 94H164.497L162.881 91.2507L161.28 94H159.371L161.698 90.1818L159.431 86.3636H161.34ZM170.787 94.1491C170.025 94.1491 169.37 93.9818 168.823 93.647C168.28 93.3123 167.86 92.8499 167.565 92.2599C167.274 91.6667 167.128 90.9839 167.128 90.2116C167.128 89.4361 167.277 88.7517 167.575 88.1584C167.874 87.5618 168.295 87.0978 168.838 86.7663C169.385 86.4316 170.031 86.2642 170.777 86.2642C171.397 86.2642 171.945 86.3786 172.423 86.6072C172.903 86.8326 173.286 87.1525 173.571 87.5668C173.856 87.9777 174.018 88.4583 174.058 89.0085H172.338C172.268 88.6406 172.103 88.334 171.841 88.0888C171.582 87.8402 171.236 87.7159 170.802 87.7159C170.434 87.7159 170.111 87.8153 169.832 88.0142C169.554 88.2098 169.337 88.4915 169.181 88.8594C169.029 89.2273 168.952 89.6681 168.952 90.1818C168.952 90.7022 169.029 91.1496 169.181 91.5241C169.334 91.8954 169.547 92.1821 169.822 92.3842C170.101 92.5831 170.427 92.6825 170.802 92.6825C171.067 92.6825 171.304 92.6328 171.513 92.5334C171.725 92.4306 171.902 92.2831 172.045 92.0909C172.187 91.8987 172.285 91.665 172.338 91.3899H174.058C174.015 91.9302 173.856 92.4091 173.581 92.8267C173.306 93.241 172.931 93.5658 172.457 93.8011C171.983 94.0331 171.427 94.1491 170.787 94.1491ZM178.917 94.1491C178.151 94.1491 177.49 93.9901 176.933 93.6719C176.38 93.3504 175.954 92.8963 175.655 92.3097C175.357 91.7197 175.208 91.0253 175.208 90.2266C175.208 89.4411 175.357 88.7517 175.655 88.1584C175.957 87.5618 176.378 87.0978 176.918 86.7663C177.458 86.4316 178.093 86.2642 178.822 86.2642C179.293 86.2642 179.737 86.3404 180.155 86.4929C180.576 86.642 180.947 86.8741 181.268 87.1889C181.593 87.5038 181.848 87.9048 182.034 88.392C182.22 88.8759 182.312 89.4527 182.312 90.1222V90.674H176.053V89.4609H180.587C180.584 89.1162 180.509 88.8097 180.363 88.5412C180.218 88.2694 180.014 88.0556 179.752 87.8999C179.493 87.7441 179.192 87.6662 178.847 87.6662C178.479 87.6662 178.156 87.7557 177.878 87.9347C177.599 88.1103 177.382 88.3423 177.226 88.6307C177.074 88.9157 176.996 89.2289 176.993 89.5703V90.6293C176.993 91.0734 177.074 91.4545 177.236 91.7727C177.399 92.0876 177.626 92.3295 177.917 92.4986C178.209 92.6643 178.55 92.7472 178.942 92.7472C179.203 92.7472 179.44 92.7107 179.653 92.6378C179.865 92.5616 180.049 92.4505 180.204 92.3047C180.36 92.1589 180.478 91.9782 180.557 91.7628L182.238 91.9517C182.132 92.3958 181.93 92.7836 181.631 93.1151C181.336 93.4432 180.958 93.6984 180.498 93.8807C180.037 94.0597 179.51 94.1491 178.917 94.1491ZM185.635 83.8182V94H183.835V83.8182H185.635Z" fill="#23262F"/><g clip-path="url(#clip1_14319_21756)"><path d="M173.116 38.6745L157.302 35.8838V56.5043C157.302 57.446 158.066 58.2094 159.007 58.2094H186.295C187.237 58.2094 188 57.446 188 56.5043V48.907L173.116 38.6745Z" fill="#185C37"/><path d="M173.116 21H159.007C158.066 21 157.302 21.7634 157.302 22.7051V30.3023L173.116 39.6047L181.488 42.3953L188 39.6047V30.3023L173.116 21Z" fill="#21A366"/><path d="M157.302 30.3022H173.116V39.6046H157.302V30.3022Z" fill="#107C41"/><path opacity="0.1" d="M168.62 28.4419H157.302V51.6977H168.62C169.561 51.6947 170.322 50.933 170.325 49.9926V30.147C170.322 29.2066 169.561 28.445 168.62 28.4419Z" fill="black"/><path opacity="0.2" d="M167.69 29.3721H157.302V52.6279H167.69C168.631 52.6248 169.392 51.8632 169.395 50.9228V31.0772C169.392 30.1367 168.631 29.3751 167.69 29.3721Z" fill="black"/><path opacity="0.2" d="M167.69 29.3721H157.302V50.7674H167.69C168.631 50.7644 169.392 50.0027 169.395 49.0623V31.0772C169.392 30.1367 168.631 29.3751 167.69 29.3721Z" fill="black"/><path opacity="0.2" d="M166.76 29.3721H157.302V50.7674H166.76C167.7 50.7644 168.462 50.0027 168.465 49.0623V31.0772C168.462 30.1367 167.7 29.3751 166.76 29.3721Z" fill="black"/><path d="M149.705 29.3721H166.76C167.702 29.3721 168.465 30.1355 168.465 31.0772V48.1321C168.465 49.0738 167.702 49.8372 166.76 49.8372H149.705C148.763 49.8372 148 49.0738 148 48.1321V31.0772C148 30.1355 148.763 29.3721 149.705 29.3721Z" fill="url(#paint1_linear_14319_21756)"/><path d="M153.281 45.1469L156.868 39.5887L153.581 34.0613H156.225L158.019 37.5962C158.184 37.932 158.298 38.1813 158.359 38.3459H158.382C158.5 38.078 158.624 37.8179 158.754 37.5655L160.672 34.0631H163.099L159.728 39.558L163.184 45.1469H160.602L158.53 41.2669C158.433 41.1018 158.35 40.9284 158.283 40.7487H158.252C158.191 40.9247 158.111 41.0933 158.012 41.2511L155.879 45.1469H153.281Z" fill="white"/><path d="M186.295 21H173.116V30.3023H188V22.7051C188 21.7634 187.237 21 186.295 21Z" fill="#33C481"/><path d="M173.116 39.6047H188V48.9071H173.116V39.6047Z" fill="#107C41"/></g><path d="M234.272 94V83.8182H238.09C238.872 83.8182 239.528 83.964 240.059 84.2557C240.592 84.5473 240.995 84.9484 241.267 85.4588C241.542 85.9659 241.68 86.5426 241.68 87.1889C241.68 87.8419 241.542 88.4219 241.267 88.929C240.992 89.4361 240.586 89.8355 240.049 90.1271C239.512 90.4155 238.851 90.5597 238.065 90.5597H235.535V89.0433H237.817C238.274 89.0433 238.648 88.9638 238.94 88.8047C239.232 88.6456 239.447 88.4268 239.586 88.1484C239.729 87.87 239.8 87.5502 239.8 87.1889C239.8 86.8277 239.729 86.5095 239.586 86.2344C239.447 85.9593 239.23 85.7455 238.935 85.593C238.644 85.4373 238.267 85.3594 237.807 85.3594H236.116V94H234.272ZM246.424 94.1491C245.678 94.1491 245.032 93.9851 244.485 93.657C243.938 93.3288 243.514 92.8698 243.212 92.2798C242.914 91.6899 242.765 91.0005 242.765 90.2116C242.765 89.4228 242.914 88.7318 243.212 88.1385C243.514 87.5452 243.938 87.0845 244.485 86.7564C245.032 86.4283 245.678 86.2642 246.424 86.2642C247.169 86.2642 247.816 86.4283 248.363 86.7564C248.909 87.0845 249.332 87.5452 249.63 88.1385C249.932 88.7318 250.083 89.4228 250.083 90.2116C250.083 91.0005 249.932 91.6899 249.63 92.2798C249.332 92.8698 248.909 93.3288 248.363 93.657C247.816 93.9851 247.169 94.1491 246.424 94.1491ZM246.434 92.7074C246.838 92.7074 247.176 92.5964 247.448 92.3743C247.72 92.1489 247.922 91.8473 248.054 91.4695C248.19 91.0916 248.258 90.6707 248.258 90.2067C248.258 89.7393 248.19 89.3168 248.054 88.9389C247.922 88.5578 247.72 88.2545 247.448 88.0291C247.176 87.8037 246.838 87.6911 246.434 87.6911C246.019 87.6911 245.675 87.8037 245.4 88.0291C245.128 88.2545 244.924 88.5578 244.788 88.9389C244.655 89.3168 244.589 89.7393 244.589 90.2067C244.589 90.6707 244.655 91.0916 244.788 91.4695C244.924 91.8473 245.128 92.1489 245.4 92.3743C245.675 92.5964 246.019 92.7074 246.434 92.7074ZM252.968 94L250.81 86.3636H252.644L253.987 91.733H254.056L255.428 86.3636H257.243L258.615 91.7031H258.69L260.012 86.3636H261.852L259.689 94H257.815L256.383 88.8395H256.279L254.847 94H252.968ZM266.27 94.1491C265.505 94.1491 264.843 93.9901 264.287 93.6719C263.733 93.3504 263.307 92.8963 263.009 92.3097C262.711 91.7197 262.561 91.0253 262.561 90.2266C262.561 89.4411 262.711 88.7517 263.009 88.1584C263.31 87.5618 263.731 87.0978 264.272 86.7663C264.812 86.4316 265.447 86.2642 266.176 86.2642C266.646 86.2642 267.091 86.3404 267.508 86.4929C267.929 86.642 268.3 86.8741 268.622 87.1889C268.947 87.5038 269.202 87.9048 269.387 88.392C269.573 88.8759 269.666 89.4527 269.666 90.1222V90.674H263.407V89.4609H267.941C267.937 89.1162 267.863 88.8097 267.717 88.5412C267.571 88.2694 267.367 88.0556 267.105 87.8999C266.847 87.7441 266.545 87.6662 266.201 87.6662C265.833 87.6662 265.51 87.7557 265.231 87.9347C264.953 88.1103 264.736 88.3423 264.58 88.6307C264.427 88.9157 264.35 89.2289 264.346 89.5703V90.6293C264.346 91.0734 264.427 91.4545 264.59 91.7727C264.752 92.0876 264.979 92.3295 265.271 92.4986C265.563 92.6643 265.904 92.7472 266.295 92.7472C266.557 92.7472 266.794 92.7107 267.006 92.6378C267.218 92.5616 267.402 92.4505 267.558 92.3047C267.714 92.1589 267.831 91.9782 267.911 91.7628L269.591 91.9517C269.485 92.3958 269.283 92.7836 268.985 93.1151C268.69 93.4432 268.312 93.6984 267.851 93.8807C267.391 94.0597 266.864 94.1491 266.27 94.1491ZM271.188 94V86.3636H272.933V87.6364H273.013C273.152 87.1955 273.391 86.8558 273.729 86.6172C274.07 86.3752 274.46 86.2543 274.897 86.2543C274.997 86.2543 275.108 86.2592 275.23 86.2692C275.356 86.2758 275.461 86.2874 275.544 86.304V87.9595C275.467 87.933 275.346 87.9098 275.181 87.8899C275.018 87.8667 274.861 87.8551 274.708 87.8551C274.38 87.8551 274.085 87.9264 273.823 88.0689C273.565 88.2081 273.361 88.402 273.212 88.6506C273.063 88.8991 272.988 89.1858 272.988 89.5107V94H271.188ZM276.819 94V83.8182H280.637C281.419 83.8182 282.075 83.964 282.606 84.2557C283.139 84.5473 283.542 84.9484 283.814 85.4588C284.089 85.9659 284.226 86.5426 284.226 87.1889C284.226 87.8419 284.089 88.4219 283.814 88.929C283.539 89.4361 283.133 89.8355 282.596 90.1271C282.059 90.4155 281.398 90.5597 280.612 90.5597H278.081V89.0433H280.363C280.821 89.0433 281.195 88.9638 281.487 88.8047C281.779 88.6456 281.994 88.4268 282.133 88.1484C282.276 87.87 282.347 87.5502 282.347 87.1889C282.347 86.8277 282.276 86.5095 282.133 86.2344C281.994 85.9593 281.777 85.7455 281.482 85.593C281.19 85.4373 280.814 85.3594 280.354 85.3594H278.663V94H276.819ZM288.971 94.1491C288.225 94.1491 287.578 93.9851 287.032 93.657C286.485 93.3288 286.06 92.8698 285.759 92.2798C285.461 91.6899 285.311 91.0005 285.311 90.2116C285.311 89.4228 285.461 88.7318 285.759 88.1385C286.06 87.5452 286.485 87.0845 287.032 86.7564C287.578 86.4283 288.225 86.2642 288.971 86.2642C289.716 86.2642 290.363 86.4283 290.909 86.7564C291.456 87.0845 291.879 87.5452 292.177 88.1385C292.479 88.7318 292.63 89.4228 292.63 90.2116C292.63 91.0005 292.479 91.6899 292.177 92.2798C291.879 92.8698 291.456 93.3288 290.909 93.657C290.363 93.9851 289.716 94.1491 288.971 94.1491ZM288.98 92.7074C289.385 92.7074 289.723 92.5964 289.995 92.3743C290.266 92.1489 290.469 91.8473 290.601 91.4695C290.737 91.0916 290.805 90.6707 290.805 90.2067C290.805 89.7393 290.737 89.3168 290.601 88.9389C290.469 88.5578 290.266 88.2545 289.995 88.0291C289.723 87.8037 289.385 87.6911 288.98 87.6911C288.566 87.6911 288.221 87.8037 287.946 88.0291C287.675 88.2545 287.471 88.5578 287.335 88.9389C287.202 89.3168 287.136 89.7393 287.136 90.2067C287.136 90.6707 287.202 91.0916 287.335 91.4695C287.471 91.8473 287.675 92.1489 287.946 92.3743C288.221 92.5964 288.566 92.7074 288.98 92.7074ZM294.157 94V86.3636H295.957V94H294.157ZM295.062 85.2798C294.777 85.2798 294.532 85.1854 294.326 84.9964C294.121 84.8042 294.018 84.5739 294.018 84.3054C294.018 84.0336 294.121 83.8033 294.326 83.6143C294.532 83.4221 294.777 83.326 295.062 83.326C295.35 83.326 295.596 83.4221 295.798 83.6143C296.003 83.8033 296.106 84.0336 296.106 84.3054C296.106 84.5739 296.003 84.8042 295.798 84.9964C295.596 85.1854 295.35 85.2798 295.062 85.2798ZM299.607 89.5256V94H297.808V86.3636H299.528V87.6612H299.617C299.793 87.2337 300.073 86.8939 300.457 86.642C300.845 86.3902 301.324 86.2642 301.894 86.2642C302.421 86.2642 302.88 86.3769 303.271 86.6023C303.666 86.8277 303.971 87.1541 304.186 87.5817C304.405 88.0092 304.513 88.5279 304.509 89.1378V94H302.71V89.4162C302.71 88.9058 302.577 88.5064 302.312 88.218C302.05 87.9297 301.687 87.7855 301.223 87.7855C300.908 87.7855 300.628 87.8551 300.383 87.9943C300.141 88.1302 299.95 88.3274 299.811 88.5859C299.675 88.8445 299.607 89.1577 299.607 89.5256ZM310.152 86.3636V87.7557H305.762V86.3636H310.152ZM306.846 84.5341H308.646V91.7031C308.646 91.9451 308.682 92.1307 308.755 92.2599C308.831 92.3859 308.931 92.4721 309.053 92.5185C309.176 92.5649 309.312 92.5881 309.461 92.5881C309.574 92.5881 309.676 92.5798 309.769 92.5632C309.865 92.5466 309.938 92.5317 309.988 92.5185L310.291 93.9254C310.195 93.9586 310.058 93.995 309.879 94.0348C309.703 94.0746 309.487 94.0978 309.232 94.1044C308.781 94.1177 308.375 94.0497 308.014 93.9006C307.653 93.7481 307.366 93.5128 307.154 93.1946C306.945 92.8764 306.843 92.4787 306.846 92.0014V84.5341Z" fill="#23262F"/><g clip-path="url(#clip2_14319_21756)"><path d="M276.186 41.4651L273.395 21H273.187C263.039 21.0296 254.82 29.2486 254.791 39.3962V39.6046L276.186 41.4651Z" fill="#ED6C47"/><path d="M273.604 21H273.395V39.6047L282.698 43.3256L292 39.6047V39.3963C291.97 29.2486 283.751 21.0296 273.604 21Z" fill="#FF8F6B"/><path d="M292 39.6047V39.8094C291.971 49.9593 283.75 58.1803 273.6 58.2094H273.191C263.041 58.1803 254.82 49.9593 254.791 39.8094V39.6047H292Z" fill="#D35230"/><path opacity="0.1" d="M274.326 30.1442V49.9954C274.321 50.6852 273.903 51.3048 273.265 51.5675C273.062 51.6534 272.844 51.6977 272.623 51.6977H259.181C258.921 51.4 258.67 51.0838 258.437 50.7675C256.067 47.606 254.788 43.7605 254.791 39.8093V39.4C254.785 35.8362 255.827 32.3492 257.786 29.3721C257.991 29.0558 258.205 28.7396 258.437 28.4419H272.623C273.56 28.449 274.318 29.207 274.326 30.1442Z" fill="black"/><path opacity="0.2" d="M273.395 31.0744V50.9256C273.395 51.1461 273.351 51.3644 273.265 51.5674C273.002 52.2053 272.383 52.6233 271.693 52.6279H260.028C259.734 52.3291 259.451 52.0188 259.181 51.6977C258.921 51.4 258.67 51.0837 258.437 50.7674C256.067 47.6059 254.788 43.7605 254.791 39.8093V39.4C254.785 35.8361 255.827 32.3491 257.786 29.3721H271.693C272.63 29.3792 273.388 30.1372 273.395 31.0744Z" fill="black"/><path opacity="0.2" d="M273.395 31.0744V49.0651C273.388 50.0023 272.63 50.7603 271.693 50.7674H258.437C256.067 47.6059 254.788 43.7605 254.791 39.8093V39.4C254.785 35.8361 255.827 32.3491 257.786 29.3721H271.693C272.63 29.3791 273.388 30.1372 273.395 31.0744Z" fill="black"/><path opacity="0.2" d="M272.465 31.0744V49.0651C272.458 50.0023 271.7 50.7603 270.763 50.7674H258.437C256.067 47.6059 254.788 43.7605 254.791 39.8093V39.4C254.785 35.8361 255.827 32.3491 257.786 29.3721H270.763C271.7 29.3791 272.458 30.1372 272.465 31.0744Z" fill="black"/><path d="M253.705 29.3721H270.76C271.702 29.3721 272.465 30.1355 272.465 31.0772V48.1321C272.465 49.0738 271.702 49.8372 270.76 49.8372H253.705C252.763 49.8372 252 49.0738 252 48.1321V31.0772C252 30.1355 252.763 29.3721 253.705 29.3721Z" fill="url(#paint2_linear_14319_21756)"/><path d="M262.419 33.9198C263.529 33.8449 264.63 34.1674 265.524 34.8296C266.27 35.4955 266.668 36.4671 266.605 37.4649C266.617 38.1586 266.432 38.8414 266.072 39.4342C265.707 40.0168 265.181 40.4814 264.558 40.7719C263.846 41.1032 263.067 41.2667 262.282 41.2501H260.125V45.2593H257.915V33.9198H262.419ZM260.123 39.518H262.024C262.627 39.5622 263.225 39.3838 263.705 39.0166C264.102 38.6357 264.31 38.0986 264.274 37.5496C264.274 36.3 263.547 35.6752 262.095 35.6752H260.123V39.518H260.123Z" fill="white"/></g><path d="M355.551 88.9091C355.551 90.0062 355.346 90.9458 354.935 91.728C354.527 92.5069 353.971 93.1035 353.265 93.5178C352.562 93.9321 351.765 94.1392 350.873 94.1392C349.982 94.1392 349.183 93.9321 348.477 93.5178C347.774 93.1001 347.217 92.5019 346.806 91.723C346.399 90.9408 346.195 90.0028 346.195 88.9091C346.195 87.812 346.399 86.8741 346.806 86.0952C347.217 85.313 347.774 84.7147 348.477 84.3004C349.183 83.8861 349.982 83.679 350.873 83.679C351.765 83.679 352.562 83.8861 353.265 84.3004C353.971 84.7147 354.527 85.313 354.935 86.0952C355.346 86.8741 355.551 87.812 355.551 88.9091ZM353.697 88.9091C353.697 88.1368 353.576 87.4856 353.334 86.9553C353.096 86.4216 352.764 86.0189 352.34 85.7472C351.916 85.4721 351.427 85.3345 350.873 85.3345C350.32 85.3345 349.831 85.4721 349.407 85.7472C348.982 86.0189 348.649 86.4216 348.407 86.9553C348.169 87.4856 348.049 88.1368 348.049 88.9091C348.049 89.6813 348.169 90.3343 348.407 90.8679C348.649 91.3982 348.982 91.8009 349.407 92.076C349.831 92.3478 350.32 92.4837 350.873 92.4837C351.427 92.4837 351.916 92.3478 352.34 92.076C352.764 91.8009 353.096 91.3982 353.334 90.8679C353.576 90.3343 353.697 89.6813 353.697 88.9091ZM359.015 89.5256V94H357.216V86.3636H358.936V87.6612H359.025C359.201 87.2337 359.481 86.8939 359.866 86.642C360.253 86.3902 360.732 86.2642 361.302 86.2642C361.829 86.2642 362.288 86.3769 362.68 86.6023C363.074 86.8277 363.379 87.1541 363.594 87.5817C363.813 88.0092 363.921 88.5279 363.917 89.1378V94H362.118V89.4162C362.118 88.9058 361.985 88.5064 361.72 88.218C361.458 87.9297 361.095 87.7855 360.631 87.7855C360.316 87.7855 360.036 87.8551 359.791 87.9943C359.549 88.1302 359.358 88.3274 359.219 88.5859C359.083 88.8445 359.015 89.1577 359.015 89.5256ZM369.128 94.1491C368.362 94.1491 367.701 93.9901 367.144 93.6719C366.59 93.3504 366.165 92.8963 365.866 92.3097C365.568 91.7197 365.419 91.0253 365.419 90.2266C365.419 89.4411 365.568 88.7517 365.866 88.1584C366.168 87.5618 366.589 87.0978 367.129 86.7663C367.669 86.4316 368.304 86.2642 369.033 86.2642C369.504 86.2642 369.948 86.3404 370.366 86.4929C370.787 86.642 371.158 86.8741 371.479 87.1889C371.804 87.5038 372.059 87.9048 372.245 88.392C372.43 88.8759 372.523 89.4527 372.523 90.1222V90.674H366.264V89.4609H370.798C370.795 89.1162 370.72 88.8097 370.574 88.5412C370.429 88.2694 370.225 88.0556 369.963 87.8999C369.704 87.7441 369.403 87.6662 369.058 87.6662C368.69 87.6662 368.367 87.7557 368.089 87.9347C367.81 88.1103 367.593 88.3423 367.437 88.6307C367.285 88.9157 367.207 89.2289 367.204 89.5703V90.6293C367.204 91.0734 367.285 91.4545 367.447 91.7727C367.61 92.0876 367.837 92.3295 368.128 92.4986C368.42 92.6643 368.761 92.7472 369.153 92.7472C369.414 92.7472 369.651 92.7107 369.863 92.6378C370.076 92.5616 370.26 92.4505 370.415 92.3047C370.571 92.1589 370.689 91.9782 370.768 91.7628L372.449 91.9517C372.343 92.3958 372.14 92.7836 371.842 93.1151C371.547 93.4432 371.169 93.6984 370.709 93.8807C370.248 94.0597 369.721 94.1491 369.128 94.1491ZM382.493 83.8182V94H380.852L376.054 87.0646H375.97V94H374.125V83.8182H375.776L380.569 90.7585H380.658V83.8182H382.493ZM387.754 94.1491C387.008 94.1491 386.362 93.9851 385.815 93.657C385.268 93.3288 384.844 92.8698 384.542 92.2798C384.244 91.6899 384.095 91.0005 384.095 90.2116C384.095 89.4228 384.244 88.7318 384.542 88.1385C384.844 87.5452 385.268 87.0845 385.815 86.7564C386.362 86.4283 387.008 86.2642 387.754 86.2642C388.499 86.2642 389.146 86.4283 389.693 86.7564C390.24 87.0845 390.662 87.5452 390.96 88.1385C391.262 88.7318 391.413 89.4228 391.413 90.2116C391.413 91.0005 391.262 91.6899 390.96 92.2798C390.662 92.8698 390.24 93.3288 389.693 93.657C389.146 93.9851 388.499 94.1491 387.754 94.1491ZM387.764 92.7074C388.168 92.7074 388.506 92.5964 388.778 92.3743C389.05 92.1489 389.252 91.8473 389.384 91.4695C389.52 91.0916 389.588 90.6707 389.588 90.2067C389.588 89.7393 389.52 89.3168 389.384 88.9389C389.252 88.5578 389.05 88.2545 388.778 88.0291C388.506 87.8037 388.168 87.6911 387.764 87.6911C387.349 87.6911 387.005 87.8037 386.73 88.0291C386.458 88.2545 386.254 88.5578 386.118 88.9389C385.985 89.3168 385.919 89.7393 385.919 90.2067C385.919 90.6707 385.985 91.0916 386.118 91.4695C386.254 91.8473 386.458 92.1489 386.73 92.3743C387.005 92.5964 387.349 92.7074 387.764 92.7074ZM396.754 86.3636V87.7557H392.364V86.3636H396.754ZM393.447 84.5341H395.247V91.7031C395.247 91.9451 395.284 92.1307 395.357 92.2599C395.433 92.3859 395.532 92.4721 395.655 92.5185C395.777 92.5649 395.913 92.5881 396.062 92.5881C396.175 92.5881 396.278 92.5798 396.371 92.5632C396.467 92.5466 396.54 92.5317 396.589 92.5185L396.893 93.9254C396.797 93.9586 396.659 93.995 396.48 94.0348C396.304 94.0746 396.089 94.0978 395.834 94.1044C395.383 94.1177 394.977 94.0497 394.616 93.9006C394.254 93.7481 393.968 93.5128 393.756 93.1946C393.547 92.8764 393.444 92.4787 393.447 92.0014V84.5341ZM401.557 94.1491C400.792 94.1491 400.131 93.9901 399.574 93.6719C399.02 93.3504 398.594 92.8963 398.296 92.3097C397.998 91.7197 397.849 91.0253 397.849 90.2266C397.849 89.4411 397.998 88.7517 398.296 88.1584C398.598 87.5618 399.019 87.0978 399.559 86.7663C400.099 86.4316 400.734 86.2642 401.463 86.2642C401.934 86.2642 402.378 86.3404 402.795 86.4929C403.216 86.642 403.587 86.8741 403.909 87.1889C404.234 87.5038 404.489 87.9048 404.675 88.392C404.86 88.8759 404.953 89.4527 404.953 90.1222V90.674H398.694V89.4609H403.228C403.224 89.1162 403.15 88.8097 403.004 88.5412C402.858 88.2694 402.654 88.0556 402.393 87.8999C402.134 87.7441 401.832 87.6662 401.488 87.6662C401.12 87.6662 400.797 87.7557 400.518 87.9347C400.24 88.1103 400.023 88.3423 399.867 88.6307C399.715 88.9157 399.637 89.2289 399.633 89.5703V90.6293C399.633 91.0734 399.715 91.4545 399.877 91.7727C400.039 92.0876 400.266 92.3295 400.558 92.4986C400.85 92.6643 401.191 92.7472 401.582 92.7472C401.844 92.7472 402.081 92.7107 402.293 92.6378C402.505 92.5616 402.689 92.4505 402.845 92.3047C403.001 92.1589 403.118 91.9782 403.198 91.7628L404.878 91.9517C404.772 92.3958 404.57 92.7836 404.272 93.1151C403.977 93.4432 403.599 93.6984 403.138 93.8807C402.678 94.0597 402.151 94.1491 401.557 94.1491Z" fill="#23262F"/><g clip-path="url(#clip3_14319_21756)"><path d="M386.698 58.2093H367.006C366.065 58.2093 365.302 57.4467 365.302 56.506V22.7033C365.302 21.7626 366.065 21 367.006 21H394.297C395.237 21 396 21.7626 396 22.7033V30.3023L386.698 58.2093Z" fill="#CA64EA"/><path d="M396 39.6045L391.349 42.3952L386.698 39.6045V30.3022H396V39.6045H396Z" fill="#AE4BD5"/><path d="M396 48.9071L391.349 51.6978L386.698 48.9071V39.6047H396V48.9071Z" fill="#9332BF"/><path d="M386.698 48.907H396V56.4651C396 57.4284 395.219 58.2093 394.256 58.2093H386.698V48.907Z" fill="#7719AA"/><path opacity="0.2" d="M376.62 28.4419H365.302V51.6977H376.62C377.561 51.6946 378.322 50.933 378.326 49.9926V30.147C378.322 29.2066 377.561 28.445 376.62 28.4419Z" fill="black"/><path opacity="0.2" d="M375.69 29.3721H365.302V52.6279H375.69C376.631 52.6248 377.392 51.8632 377.395 50.9228V31.0772C377.392 30.1368 376.631 29.3751 375.69 29.3721Z" fill="black"/><path opacity="0.5" d="M375.69 29.3721H365.302V50.7674H375.69C376.631 50.7644 377.392 50.0027 377.395 49.0623V31.0772C377.392 30.1368 376.631 29.3751 375.69 29.3721Z" fill="black"/><path opacity="0.5" d="M374.76 29.3721H365.302V50.7674H374.76C375.7 50.7644 376.462 50.0027 376.465 49.0623V31.0772C376.462 30.1368 375.7 29.3751 374.76 29.3721Z" fill="black"/><path d="M357.705 29.3721H374.76C375.702 29.3721 376.465 30.1355 376.465 31.0772V48.1321C376.465 49.0738 375.702 49.8372 374.76 49.8372H357.705C356.763 49.8372 356 49.0738 356 48.1321V31.0772C356 30.1355 356.763 29.3721 357.705 29.3721Z" fill="url(#paint3_linear_14319_21756)"/><path d="M361.606 34.0623H363.917L368.459 41.4112C368.666 41.7405 368.821 42.0056 368.925 42.2065H368.954C368.898 41.7063 368.876 41.2028 368.887 40.6995V34.0623H370.859V45.147H368.696L363.983 37.5944C363.824 37.3452 363.683 37.0843 363.563 36.8139H363.526C363.573 37.3639 363.593 37.9159 363.584 38.4679V45.147H361.606V34.0623Z" fill="white"/></g><defs><linearGradient id="paint0_linear_14319_21756" x1="45.8218" y1="27.5677" x2="60.1782" y2="52.4323" gradientUnits="userSpaceOnUse"><stop stop-color="#2368C4"/><stop offset="0.5" stop-color="#1A5DBE"/><stop offset="1" stop-color="#1146AC"/></linearGradient><linearGradient id="paint1_linear_14319_21756" x1="151.555" y1="28.0397" x2="164.91" y2="51.1695" gradientUnits="userSpaceOnUse"><stop stop-color="#18884F"/><stop offset="0.5" stop-color="#117E43"/><stop offset="1" stop-color="#0B6631"/></linearGradient><linearGradient id="paint2_linear_14319_21756" x1="255.555" y1="28.0397" x2="268.91" y2="51.1696" gradientUnits="userSpaceOnUse"><stop stop-color="#CA4C28"/><stop offset="0.5" stop-color="#C5401E"/><stop offset="1" stop-color="#B62F14"/></linearGradient><linearGradient id="paint3_linear_14319_21756" x1="359.555" y1="28.0397" x2="372.91" y2="51.1695" gradientUnits="userSpaceOnUse"><stop stop-color="#8324B3"/><stop offset="0.5" stop-color="#7A1BAC"/><stop offset="1" stop-color="#621197"/></linearGradient><clipPath id="clip0_14319_21756"><rect width="43" height="40" fill="white" transform="translate(42 20)"/></clipPath><clipPath id="clip1_14319_21756"><rect width="40" height="37.2093" fill="white" transform="translate(148 21)"/></clipPath><clipPath id="clip2_14319_21756"><rect width="40" height="37.2093" fill="white" transform="translate(252 21)"/></clipPath><clipPath id="clip3_14319_21756"><rect width="40" height="37.2093" fill="white" transform="translate(356 21)"/></clipPath></defs></svg>