<svg xmlns="http://www.w3.org/2000/svg" width="544" height="107" viewBox="0 0 544 107" fill="none"><path d="M49.2027 93L46.3291 82.8182H48.3128L50.1473 90.3004H50.2417L52.2006 82.8182H54.0052L55.969 90.3054H56.0585L57.893 82.8182H59.8767L57.0031 93H55.1835L53.1452 85.8558H53.0656L51.0223 93H49.2027ZM63.6278 93.1491C62.882 93.1491 62.2357 92.9851 61.6888 92.657C61.142 92.3288 60.7177 91.8698 60.4161 91.2798C60.1178 90.6899 59.9687 90.0005 59.9687 89.2116C59.9687 88.4228 60.1178 87.7318 60.4161 87.1385C60.7177 86.5452 61.142 86.0845 61.6888 85.7564C62.2357 85.4283 62.882 85.2642 63.6278 85.2642C64.3735 85.2642 65.0198 85.4283 65.5667 85.7564C66.1135 86.0845 66.5361 86.5452 66.8344 87.1385C67.136 87.7318 67.2868 88.4228 67.2868 89.2116C67.2868 90.0005 67.136 90.6899 66.8344 91.2798C66.5361 91.8698 66.1135 92.3288 65.5667 92.657C65.0198 92.9851 64.3735 93.1491 63.6278 93.1491ZM63.6377 91.7074C64.0421 91.7074 64.3801 91.5964 64.6519 91.3743C64.9237 91.1489 65.1259 90.8473 65.2584 90.4695C65.3943 90.0916 65.4623 89.6707 65.4623 89.2067C65.4623 88.7393 65.3943 88.3168 65.2584 87.9389C65.1259 87.5578 64.9237 87.2545 64.6519 87.0291C64.3801 86.8037 64.0421 86.6911 63.6377 86.6911C63.2234 86.6911 62.8787 86.8037 62.6036 87.0291C62.3318 87.2545 62.128 87.5578 61.9921 87.9389C61.8595 88.3168 61.7932 88.7393 61.7932 89.2067C61.7932 89.6707 61.8595 90.0916 61.9921 90.4695C62.128 90.8473 62.3318 91.1489 62.6036 91.3743C62.8787 91.5964 63.2234 91.7074 63.6377 91.7074ZM68.8144 93V85.3636H70.5594V86.6364H70.6389C70.7781 86.1955 71.0168 85.8558 71.3548 85.6172C71.6962 85.3752 72.0857 85.2543 72.5232 85.2543C72.6226 85.2543 72.7336 85.2592 72.8563 85.2692C72.9822 85.2758 73.0866 85.2874 73.1695 85.304V86.9595C73.0932 86.933 72.9723 86.9098 72.8066 86.8899C72.6441 86.8667 72.4867 86.8551 72.3343 86.8551C72.0061 86.8551 71.7111 86.9264 71.4493 87.0689C71.1908 87.2081 70.9869 87.402 70.8378 87.6506C70.6887 87.8991 70.6141 88.1858 70.6141 88.5107V93H68.8144ZM76.8845 93.1342C76.2846 93.1342 75.7477 92.9801 75.2737 92.6719C74.7997 92.3636 74.4252 91.9162 74.1501 91.3295C73.875 90.7429 73.7375 90.0303 73.7375 89.1918C73.7375 88.3433 73.8767 87.6274 74.1551 87.044C74.4368 86.4574 74.8163 86.0149 75.2936 85.7166C75.7709 85.415 76.3028 85.2642 76.8895 85.2642C77.3369 85.2642 77.7048 85.3404 77.9932 85.4929C78.2815 85.642 78.5102 85.8227 78.6792 86.0348C78.8483 86.2436 78.9792 86.4408 79.072 86.6264H79.1466V82.8182H80.9513V93H79.1814V91.7969H79.072C78.9792 91.9825 78.845 92.1797 78.6693 92.3885C78.4936 92.594 78.2616 92.7696 77.9733 92.9155C77.6849 93.0613 77.322 93.1342 76.8845 93.1342ZM77.3866 91.6577C77.7678 91.6577 78.0926 91.5549 78.3611 91.3494C78.6295 91.1406 78.8334 90.8506 78.9726 90.4794C79.1118 90.1082 79.1814 89.6757 79.1814 89.1818C79.1814 88.688 79.1118 88.2588 78.9726 87.8942C78.8367 87.5296 78.6345 87.2462 78.366 87.044C78.1009 86.8419 77.7744 86.7408 77.3866 86.7408C76.9856 86.7408 76.6508 86.8452 76.3824 87.054C76.1139 87.2628 75.9117 87.5511 75.7758 87.919C75.6399 88.2869 75.572 88.7079 75.572 89.1818C75.572 89.6591 75.6399 90.085 75.7758 90.4595C75.915 90.8307 76.1189 91.1241 76.3873 91.3395C76.6591 91.5516 76.9922 91.6577 77.3866 91.6577Z" fill="black"/><g clip-path="url(#clip0_14319_21963)"><path d="M83.167 20H53.833C52.8207 20 52 20.8207 52 21.833V30L69 35L85 30V21.833C85 20.8207 84.1793 20 83.167 20Z" fill="#41A5EE"/><path d="M85 30H52V40L69 43L85 40V30Z" fill="#2B7CD3"/><path d="M52 40V50L68 52L85 50V40H52Z" fill="#185ABD"/><path d="M53.833 60H83.1671C84.1795 60 85.0001 59.1793 85.0001 58.167V50H52V58.167C52 59.1793 52.8207 60 53.833 60Z" fill="#103F91"/><path opacity="0.1" d="M64.167 28H52V53H64.167C65.178 52.9967 65.9967 52.178 66 51.167V29.833C65.9967 28.822 65.178 28.0033 64.167 28Z" fill="black"/><path opacity="0.2" d="M63.1669 29H52V54H63.1669C64.1779 53.9967 64.9966 53.178 64.9999 52.167V30.833C64.9966 29.822 64.1779 29.0033 63.1669 29Z" fill="black"/><path opacity="0.2" d="M63.1669 29H52V52H63.1669C64.1779 51.9967 64.9966 51.178 64.9999 50.167V30.833C64.9966 29.822 64.1779 29.0033 63.1669 29Z" fill="black"/><path opacity="0.2" d="M62.167 29H52V52H62.167C63.178 51.9967 63.9967 51.178 64 50.167V30.833C63.9967 29.822 63.178 29.0033 62.167 29Z" fill="black"/><path d="M43.833 29H62.167C63.1793 29 64 29.8207 64 30.833V49.167C64 50.1794 63.1793 51 62.167 51H43.833C42.8207 51 42 50.1794 42 49.167V30.833C42 29.8207 42.8207 29 43.833 29Z" fill="url(#paint0_linear_14319_21963)"/><path d="M49.5221 43.0579C49.5581 43.3409 49.5821 43.5869 49.593 43.7979H49.635C49.651 43.5979 49.6844 43.3569 49.735 43.0749C49.7857 42.7929 49.8314 42.5545 49.872 42.3599L51.8 34.0418H54.293L56.293 42.2349C56.4093 42.7443 56.4924 43.2607 56.5421 43.7809H56.5751C56.6123 43.2769 56.6818 42.7759 56.7831 42.2809L58.3781 34.0378H60.6471L57.845 45.9579H55.1941L53.2941 38.0638C53.2391 37.8369 53.1761 37.5398 53.1071 37.1748C53.0381 36.8098 52.9951 36.5428 52.9781 36.3748H52.945C52.9231 36.5688 52.88 36.8568 52.816 37.2388C52.752 37.6209 52.7007 37.9035 52.662 38.0868L50.876 45.9559H48.18L45.363 34.0418H47.673L49.41 42.3769C49.449 42.5479 49.4861 42.7759 49.5221 43.0579Z" fill="white"/></g><path d="M151.444 94V83.8182H158.066V85.3643H153.288V88.1286H157.723V89.6747H153.288V92.4538H158.106V94H151.444ZM161.34 86.3636L162.881 89.1825L164.447 86.3636H166.351L164.049 90.1818L166.391 94H164.497L162.881 91.2507L161.28 94H159.371L161.698 90.1818L159.431 86.3636H161.34ZM170.787 94.1491C170.025 94.1491 169.37 93.9818 168.823 93.647C168.28 93.3123 167.86 92.8499 167.565 92.2599C167.274 91.6667 167.128 90.9839 167.128 90.2116C167.128 89.4361 167.277 88.7517 167.575 88.1584C167.874 87.5618 168.295 87.0978 168.838 86.7663C169.385 86.4316 170.031 86.2642 170.777 86.2642C171.397 86.2642 171.945 86.3786 172.423 86.6072C172.903 86.8326 173.286 87.1525 173.571 87.5668C173.856 87.9777 174.018 88.4583 174.058 89.0085H172.338C172.268 88.6406 172.103 88.334 171.841 88.0888C171.582 87.8402 171.236 87.7159 170.802 87.7159C170.434 87.7159 170.111 87.8153 169.832 88.0142C169.554 88.2098 169.337 88.4915 169.181 88.8594C169.029 89.2273 168.952 89.6681 168.952 90.1818C168.952 90.7022 169.029 91.1496 169.181 91.5241C169.334 91.8954 169.547 92.1821 169.822 92.3842C170.101 92.5831 170.427 92.6825 170.802 92.6825C171.067 92.6825 171.304 92.6328 171.513 92.5334C171.725 92.4306 171.902 92.2831 172.045 92.0909C172.187 91.8987 172.285 91.665 172.338 91.3899H174.058C174.015 91.9302 173.856 92.4091 173.581 92.8267C173.306 93.241 172.931 93.5658 172.457 93.8011C171.983 94.0331 171.427 94.1491 170.787 94.1491ZM178.917 94.1491C178.151 94.1491 177.49 93.9901 176.933 93.6719C176.38 93.3504 175.954 92.8963 175.655 92.3097C175.357 91.7197 175.208 91.0253 175.208 90.2266C175.208 89.4411 175.357 88.7517 175.655 88.1584C175.957 87.5618 176.378 87.0978 176.918 86.7663C177.458 86.4316 178.093 86.2642 178.822 86.2642C179.293 86.2642 179.737 86.3404 180.155 86.4929C180.576 86.642 180.947 86.8741 181.268 87.1889C181.593 87.5038 181.848 87.9048 182.034 88.392C182.22 88.8759 182.312 89.4527 182.312 90.1222V90.674H176.053V89.4609H180.587C180.584 89.1162 180.509 88.8097 180.363 88.5412C180.218 88.2694 180.014 88.0556 179.752 87.8999C179.493 87.7441 179.192 87.6662 178.847 87.6662C178.479 87.6662 178.156 87.7557 177.878 87.9347C177.599 88.1103 177.382 88.3423 177.226 88.6307C177.074 88.9157 176.996 89.2289 176.993 89.5703V90.6293C176.993 91.0734 177.074 91.4545 177.236 91.7727C177.399 92.0876 177.626 92.3295 177.917 92.4986C178.209 92.6643 178.55 92.7472 178.942 92.7472C179.203 92.7472 179.44 92.7107 179.653 92.6378C179.865 92.5616 180.049 92.4505 180.204 92.3047C180.36 92.1589 180.478 91.9782 180.557 91.7628L182.238 91.9517C182.132 92.3958 181.93 92.7836 181.631 93.1151C181.336 93.4432 180.958 93.6984 180.498 93.8807C180.037 94.0597 179.51 94.1491 178.917 94.1491ZM185.635 83.8182V94H183.835V83.8182H185.635Z" fill="#23262F"/><g clip-path="url(#clip1_14319_21963)"><path d="M173.116 38.6745L157.302 35.8838V56.5043C157.302 57.446 158.066 58.2094 159.007 58.2094H186.295C187.237 58.2094 188 57.446 188 56.5043V48.907L173.116 38.6745Z" fill="#185C37"/><path d="M173.116 21H159.007C158.066 21 157.302 21.7634 157.302 22.7051V30.3023L173.116 39.6047L181.488 42.3953L188 39.6047V30.3023L173.116 21Z" fill="#21A366"/><path d="M157.302 30.3022H173.116V39.6046H157.302V30.3022Z" fill="#107C41"/><path opacity="0.1" d="M168.62 28.4419H157.302V51.6977H168.62C169.561 51.6947 170.322 50.933 170.325 49.9926V30.147C170.322 29.2066 169.561 28.445 168.62 28.4419Z" fill="black"/><path opacity="0.2" d="M167.69 29.3721H157.302V52.6279H167.69C168.631 52.6248 169.392 51.8632 169.395 50.9228V31.0772C169.392 30.1367 168.631 29.3751 167.69 29.3721Z" fill="black"/><path opacity="0.2" d="M167.69 29.3721H157.302V50.7674H167.69C168.631 50.7644 169.392 50.0027 169.395 49.0623V31.0772C169.392 30.1367 168.631 29.3751 167.69 29.3721Z" fill="black"/><path opacity="0.2" d="M166.76 29.3721H157.302V50.7674H166.76C167.7 50.7644 168.462 50.0027 168.465 49.0623V31.0772C168.462 30.1367 167.7 29.3751 166.76 29.3721Z" fill="black"/><path d="M149.705 29.3721H166.76C167.702 29.3721 168.465 30.1355 168.465 31.0772V48.1321C168.465 49.0738 167.702 49.8372 166.76 49.8372H149.705C148.763 49.8372 148 49.0738 148 48.1321V31.0772C148 30.1355 148.763 29.3721 149.705 29.3721Z" fill="url(#paint1_linear_14319_21963)"/><path d="M153.281 45.1469L156.868 39.5887L153.581 34.0613H156.225L158.019 37.5962C158.184 37.932 158.298 38.1813 158.359 38.3459H158.382C158.5 38.078 158.624 37.8179 158.754 37.5655L160.672 34.0631H163.099L159.728 39.558L163.184 45.1469H160.602L158.53 41.2669C158.433 41.1018 158.35 40.9284 158.283 40.7487H158.252C158.191 40.9247 158.111 41.0933 158.012 41.2511L155.879 45.1469H153.281Z" fill="white"/><path d="M186.295 21H173.116V30.3023H188V22.7051C188 21.7634 187.237 21 186.295 21Z" fill="#33C481"/><path d="M173.116 39.6047H188V48.9071H173.116V39.6047Z" fill="#107C41"/></g><path d="M234.272 94V83.8182H238.09C238.872 83.8182 239.528 83.964 240.059 84.2557C240.592 84.5473 240.995 84.9484 241.267 85.4588C241.542 85.9659 241.68 86.5426 241.68 87.1889C241.68 87.8419 241.542 88.4219 241.267 88.929C240.992 89.4361 240.586 89.8355 240.049 90.1271C239.512 90.4155 238.851 90.5597 238.065 90.5597H235.535V89.0433H237.817C238.274 89.0433 238.648 88.9638 238.94 88.8047C239.232 88.6456 239.447 88.4268 239.586 88.1484C239.729 87.87 239.8 87.5502 239.8 87.1889C239.8 86.8277 239.729 86.5095 239.586 86.2344C239.447 85.9593 239.23 85.7455 238.935 85.593C238.644 85.4373 238.267 85.3594 237.807 85.3594H236.116V94H234.272ZM246.424 94.1491C245.678 94.1491 245.032 93.9851 244.485 93.657C243.938 93.3288 243.514 92.8698 243.212 92.2798C242.914 91.6899 242.765 91.0005 242.765 90.2116C242.765 89.4228 242.914 88.7318 243.212 88.1385C243.514 87.5452 243.938 87.0845 244.485 86.7564C245.032 86.4283 245.678 86.2642 246.424 86.2642C247.169 86.2642 247.816 86.4283 248.363 86.7564C248.909 87.0845 249.332 87.5452 249.63 88.1385C249.932 88.7318 250.083 89.4228 250.083 90.2116C250.083 91.0005 249.932 91.6899 249.63 92.2798C249.332 92.8698 248.909 93.3288 248.363 93.657C247.816 93.9851 247.169 94.1491 246.424 94.1491ZM246.434 92.7074C246.838 92.7074 247.176 92.5964 247.448 92.3743C247.72 92.1489 247.922 91.8473 248.054 91.4695C248.19 91.0916 248.258 90.6707 248.258 90.2067C248.258 89.7393 248.19 89.3168 248.054 88.9389C247.922 88.5578 247.72 88.2545 247.448 88.0291C247.176 87.8037 246.838 87.6911 246.434 87.6911C246.019 87.6911 245.675 87.8037 245.4 88.0291C245.128 88.2545 244.924 88.5578 244.788 88.9389C244.655 89.3168 244.589 89.7393 244.589 90.2067C244.589 90.6707 244.655 91.0916 244.788 91.4695C244.924 91.8473 245.128 92.1489 245.4 92.3743C245.675 92.5964 246.019 92.7074 246.434 92.7074ZM252.968 94L250.81 86.3636H252.644L253.987 91.733H254.056L255.428 86.3636H257.243L258.615 91.7031H258.69L260.012 86.3636H261.852L259.689 94H257.815L256.383 88.8395H256.279L254.847 94H252.968ZM266.27 94.1491C265.505 94.1491 264.843 93.9901 264.287 93.6719C263.733 93.3504 263.307 92.8963 263.009 92.3097C262.711 91.7197 262.561 91.0253 262.561 90.2266C262.561 89.4411 262.711 88.7517 263.009 88.1584C263.31 87.5618 263.731 87.0978 264.272 86.7663C264.812 86.4316 265.447 86.2642 266.176 86.2642C266.646 86.2642 267.091 86.3404 267.508 86.4929C267.929 86.642 268.3 86.8741 268.622 87.1889C268.947 87.5038 269.202 87.9048 269.387 88.392C269.573 88.8759 269.666 89.4527 269.666 90.1222V90.674H263.407V89.4609H267.941C267.937 89.1162 267.863 88.8097 267.717 88.5412C267.571 88.2694 267.367 88.0556 267.105 87.8999C266.847 87.7441 266.545 87.6662 266.201 87.6662C265.833 87.6662 265.51 87.7557 265.231 87.9347C264.953 88.1103 264.736 88.3423 264.58 88.6307C264.427 88.9157 264.35 89.2289 264.346 89.5703V90.6293C264.346 91.0734 264.427 91.4545 264.59 91.7727C264.752 92.0876 264.979 92.3295 265.271 92.4986C265.563 92.6643 265.904 92.7472 266.295 92.7472C266.557 92.7472 266.794 92.7107 267.006 92.6378C267.218 92.5616 267.402 92.4505 267.558 92.3047C267.714 92.1589 267.831 91.9782 267.911 91.7628L269.591 91.9517C269.485 92.3958 269.283 92.7836 268.985 93.1151C268.69 93.4432 268.312 93.6984 267.851 93.8807C267.391 94.0597 266.864 94.1491 266.27 94.1491ZM271.188 94V86.3636H272.933V87.6364H273.013C273.152 87.1955 273.391 86.8558 273.729 86.6172C274.07 86.3752 274.46 86.2543 274.897 86.2543C274.997 86.2543 275.108 86.2592 275.23 86.2692C275.356 86.2758 275.461 86.2874 275.544 86.304V87.9595C275.467 87.933 275.346 87.9098 275.181 87.8899C275.018 87.8667 274.861 87.8551 274.708 87.8551C274.38 87.8551 274.085 87.9264 273.823 88.0689C273.565 88.2081 273.361 88.402 273.212 88.6506C273.063 88.8991 272.988 89.1858 272.988 89.5107V94H271.188ZM276.819 94V83.8182H280.637C281.419 83.8182 282.075 83.964 282.606 84.2557C283.139 84.5473 283.542 84.9484 283.814 85.4588C284.089 85.9659 284.226 86.5426 284.226 87.1889C284.226 87.8419 284.089 88.4219 283.814 88.929C283.539 89.4361 283.133 89.8355 282.596 90.1271C282.059 90.4155 281.398 90.5597 280.612 90.5597H278.081V89.0433H280.363C280.821 89.0433 281.195 88.9638 281.487 88.8047C281.779 88.6456 281.994 88.4268 282.133 88.1484C282.276 87.87 282.347 87.5502 282.347 87.1889C282.347 86.8277 282.276 86.5095 282.133 86.2344C281.994 85.9593 281.777 85.7455 281.482 85.593C281.19 85.4373 280.814 85.3594 280.354 85.3594H278.663V94H276.819ZM288.971 94.1491C288.225 94.1491 287.578 93.9851 287.032 93.657C286.485 93.3288 286.06 92.8698 285.759 92.2798C285.461 91.6899 285.311 91.0005 285.311 90.2116C285.311 89.4228 285.461 88.7318 285.759 88.1385C286.06 87.5452 286.485 87.0845 287.032 86.7564C287.578 86.4283 288.225 86.2642 288.971 86.2642C289.716 86.2642 290.363 86.4283 290.909 86.7564C291.456 87.0845 291.879 87.5452 292.177 88.1385C292.479 88.7318 292.63 89.4228 292.63 90.2116C292.63 91.0005 292.479 91.6899 292.177 92.2798C291.879 92.8698 291.456 93.3288 290.909 93.657C290.363 93.9851 289.716 94.1491 288.971 94.1491ZM288.98 92.7074C289.385 92.7074 289.723 92.5964 289.995 92.3743C290.266 92.1489 290.469 91.8473 290.601 91.4695C290.737 91.0916 290.805 90.6707 290.805 90.2067C290.805 89.7393 290.737 89.3168 290.601 88.9389C290.469 88.5578 290.266 88.2545 289.995 88.0291C289.723 87.8037 289.385 87.6911 288.98 87.6911C288.566 87.6911 288.221 87.8037 287.946 88.0291C287.675 88.2545 287.471 88.5578 287.335 88.9389C287.202 89.3168 287.136 89.7393 287.136 90.2067C287.136 90.6707 287.202 91.0916 287.335 91.4695C287.471 91.8473 287.675 92.1489 287.946 92.3743C288.221 92.5964 288.566 92.7074 288.98 92.7074ZM294.157 94V86.3636H295.957V94H294.157ZM295.062 85.2798C294.777 85.2798 294.532 85.1854 294.326 84.9964C294.121 84.8042 294.018 84.5739 294.018 84.3054C294.018 84.0336 294.121 83.8033 294.326 83.6143C294.532 83.4221 294.777 83.326 295.062 83.326C295.35 83.326 295.596 83.4221 295.798 83.6143C296.003 83.8033 296.106 84.0336 296.106 84.3054C296.106 84.5739 296.003 84.8042 295.798 84.9964C295.596 85.1854 295.35 85.2798 295.062 85.2798ZM299.607 89.5256V94H297.808V86.3636H299.528V87.6612H299.617C299.793 87.2337 300.073 86.8939 300.457 86.642C300.845 86.3902 301.324 86.2642 301.894 86.2642C302.421 86.2642 302.88 86.3769 303.271 86.6023C303.666 86.8277 303.971 87.1541 304.186 87.5817C304.405 88.0092 304.513 88.5279 304.509 89.1378V94H302.71V89.4162C302.71 88.9058 302.577 88.5064 302.312 88.218C302.05 87.9297 301.687 87.7855 301.223 87.7855C300.908 87.7855 300.628 87.8551 300.383 87.9943C300.141 88.1302 299.95 88.3274 299.811 88.5859C299.675 88.8445 299.607 89.1577 299.607 89.5256ZM310.152 86.3636V87.7557H305.762V86.3636H310.152ZM306.846 84.5341H308.646V91.7031C308.646 91.9451 308.682 92.1307 308.755 92.2599C308.831 92.3859 308.931 92.4721 309.053 92.5185C309.176 92.5649 309.312 92.5881 309.461 92.5881C309.574 92.5881 309.676 92.5798 309.769 92.5632C309.865 92.5466 309.938 92.5317 309.988 92.5185L310.291 93.9254C310.195 93.9586 310.058 93.995 309.879 94.0348C309.703 94.0746 309.487 94.0978 309.232 94.1044C308.781 94.1177 308.375 94.0497 308.014 93.9006C307.653 93.7481 307.366 93.5128 307.154 93.1946C306.945 92.8764 306.843 92.4787 306.846 92.0014V84.5341Z" fill="#23262F"/><g clip-path="url(#clip2_14319_21963)"><path d="M276.186 41.4651L273.395 21H273.187C263.039 21.0296 254.82 29.2486 254.791 39.3962V39.6046L276.186 41.4651Z" fill="#ED6C47"/><path d="M273.604 21H273.395V39.6047L282.698 43.3256L292 39.6047V39.3963C291.97 29.2486 283.751 21.0296 273.604 21Z" fill="#FF8F6B"/><path d="M292 39.6047V39.8094C291.971 49.9593 283.75 58.1803 273.6 58.2094H273.191C263.041 58.1803 254.82 49.9593 254.791 39.8094V39.6047H292Z" fill="#D35230"/><path opacity="0.1" d="M274.326 30.1442V49.9954C274.321 50.6852 273.903 51.3048 273.265 51.5675C273.062 51.6534 272.844 51.6977 272.623 51.6977H259.181C258.921 51.4 258.67 51.0838 258.437 50.7675C256.067 47.606 254.788 43.7605 254.791 39.8093V39.4C254.785 35.8362 255.827 32.3492 257.786 29.3721C257.991 29.0558 258.205 28.7396 258.437 28.4419H272.623C273.56 28.449 274.318 29.207 274.326 30.1442Z" fill="black"/><path opacity="0.2" d="M273.395 31.0744V50.9256C273.395 51.1461 273.351 51.3644 273.265 51.5674C273.002 52.2053 272.383 52.6233 271.693 52.6279H260.028C259.734 52.3291 259.451 52.0188 259.181 51.6977C258.921 51.4 258.67 51.0837 258.437 50.7674C256.067 47.6059 254.788 43.7605 254.791 39.8093V39.4C254.785 35.8361 255.827 32.3491 257.786 29.3721H271.693C272.63 29.3792 273.388 30.1372 273.395 31.0744Z" fill="black"/><path opacity="0.2" d="M273.395 31.0744V49.0651C273.388 50.0023 272.63 50.7603 271.693 50.7674H258.437C256.067 47.6059 254.788 43.7605 254.791 39.8093V39.4C254.785 35.8361 255.827 32.3491 257.786 29.3721H271.693C272.63 29.3791 273.388 30.1372 273.395 31.0744Z" fill="black"/><path opacity="0.2" d="M272.465 31.0744V49.0651C272.458 50.0023 271.7 50.7603 270.763 50.7674H258.437C256.067 47.6059 254.788 43.7605 254.791 39.8093V39.4C254.785 35.8361 255.827 32.3491 257.786 29.3721H270.763C271.7 29.3791 272.458 30.1372 272.465 31.0744Z" fill="black"/><path d="M253.705 29.3721H270.76C271.702 29.3721 272.465 30.1355 272.465 31.0772V48.1321C272.465 49.0738 271.702 49.8372 270.76 49.8372H253.705C252.763 49.8372 252 49.0738 252 48.1321V31.0772C252 30.1355 252.763 29.3721 253.705 29.3721Z" fill="url(#paint2_linear_14319_21963)"/><path d="M262.419 33.9198C263.529 33.8449 264.63 34.1674 265.524 34.8296C266.27 35.4955 266.668 36.4671 266.605 37.4649C266.617 38.1586 266.432 38.8414 266.072 39.4342C265.707 40.0168 265.181 40.4814 264.558 40.7719C263.846 41.1032 263.067 41.2667 262.282 41.2501H260.125V45.2593H257.915V33.9198H262.419ZM260.123 39.518H262.024C262.627 39.5622 263.225 39.3838 263.705 39.0166C264.102 38.6357 264.31 38.0986 264.274 37.5496C264.274 36.3 263.547 35.6752 262.095 35.6752H260.123V39.518H260.123Z" fill="white"/></g><path d="M359.353 88.9091C359.353 90.0062 359.148 90.9458 358.737 91.728C358.329 92.5069 357.772 93.1035 357.066 93.5178C356.364 93.9321 355.567 94.1392 354.675 94.1392C353.783 94.1392 352.985 93.9321 352.279 93.5178C351.576 93.1001 351.019 92.5019 350.608 91.723C350.201 90.9408 349.997 90.0028 349.997 88.9091C349.997 87.812 350.201 86.8741 350.608 86.0952C351.019 85.313 351.576 84.7147 352.279 84.3004C352.985 83.8861 353.783 83.679 354.675 83.679C355.567 83.679 356.364 83.8861 357.066 84.3004C357.772 84.7147 358.329 85.313 358.737 86.0952C359.148 86.8741 359.353 87.812 359.353 88.9091ZM357.499 88.9091C357.499 88.1368 357.378 87.4856 357.136 86.9553C356.897 86.4216 356.566 86.0189 356.142 85.7472C355.717 85.4721 355.228 85.3345 354.675 85.3345C354.121 85.3345 353.633 85.4721 353.208 85.7472C352.784 86.0189 352.451 86.4216 352.209 86.9553C351.97 87.4856 351.851 88.1368 351.851 88.9091C351.851 89.6813 351.97 90.3343 352.209 90.8679C352.451 91.3982 352.784 91.8009 353.208 92.076C353.633 92.3478 354.121 92.4837 354.675 92.4837C355.228 92.4837 355.717 92.3478 356.142 92.076C356.566 91.8009 356.897 91.3982 357.136 90.8679C357.378 90.3343 357.499 89.6813 357.499 88.9091ZM365.885 90.7884V86.3636H367.684V94H365.939V92.6428H365.86C365.687 93.0703 365.404 93.42 365.01 93.6918C364.619 93.9635 364.136 94.0994 363.563 94.0994C363.062 94.0994 362.62 93.9884 362.236 93.7663C361.854 93.541 361.556 93.2145 361.341 92.7869C361.125 92.3561 361.017 91.8357 361.017 91.2259V86.3636H362.817V90.9474C362.817 91.4313 362.95 91.8158 363.215 92.1009C363.48 92.3859 363.828 92.5284 364.259 92.5284C364.524 92.5284 364.781 92.4638 365.03 92.3345C365.278 92.2053 365.482 92.013 365.641 91.7578C365.803 91.4993 365.885 91.1761 365.885 90.7884ZM373.348 86.3636V87.7557H368.958V86.3636H373.348ZM370.042 84.5341H371.842V91.7031C371.842 91.9451 371.878 92.1307 371.951 92.2599C372.027 92.3859 372.127 92.4721 372.25 92.5185C372.372 92.5649 372.508 92.5881 372.657 92.5881C372.77 92.5881 372.873 92.5798 372.965 92.5632C373.062 92.5466 373.134 92.5317 373.184 92.5185L373.487 93.9254C373.391 93.9586 373.254 93.995 373.075 94.0348C372.899 94.0746 372.684 94.0978 372.429 94.1044C371.978 94.1177 371.572 94.0497 371.21 93.9006C370.849 93.7481 370.563 93.5128 370.35 93.1946C370.142 92.8764 370.039 92.4787 370.042 92.0014V84.5341ZM376.817 83.8182V94H375.017V83.8182H376.817ZM381.999 94.1491C381.253 94.1491 380.607 93.9851 380.06 93.657C379.513 93.3288 379.089 92.8698 378.787 92.2798C378.489 91.6899 378.34 91.0005 378.34 90.2116C378.34 89.4228 378.489 88.7318 378.787 88.1385C379.089 87.5452 379.513 87.0845 380.06 86.7564C380.607 86.4283 381.253 86.2642 381.999 86.2642C382.745 86.2642 383.391 86.4283 383.938 86.7564C384.485 87.0845 384.907 87.5452 385.206 88.1385C385.507 88.7318 385.658 89.4228 385.658 90.2116C385.658 91.0005 385.507 91.6899 385.206 92.2798C384.907 92.8698 384.485 93.3288 383.938 93.657C383.391 93.9851 382.745 94.1491 381.999 94.1491ZM382.009 92.7074C382.413 92.7074 382.751 92.5964 383.023 92.3743C383.295 92.1489 383.497 91.8473 383.63 91.4695C383.765 91.0916 383.833 90.6707 383.833 90.2067C383.833 89.7393 383.765 89.3168 383.63 88.9389C383.497 88.5578 383.295 88.2545 383.023 88.0291C382.751 87.8037 382.413 87.6911 382.009 87.6911C381.594 87.6911 381.25 87.8037 380.975 88.0291C380.703 88.2545 380.499 88.5578 380.363 88.9389C380.231 89.3168 380.164 89.7393 380.164 90.2067C380.164 90.6707 380.231 91.0916 380.363 91.4695C380.499 91.8473 380.703 92.1489 380.975 92.3743C381.25 92.5964 381.594 92.7074 382.009 92.7074ZM390.516 94.1491C389.771 94.1491 389.124 93.9851 388.578 93.657C388.031 93.3288 387.606 92.8698 387.305 92.2798C387.006 91.6899 386.857 91.0005 386.857 90.2116C386.857 89.4228 387.006 88.7318 387.305 88.1385C387.606 87.5452 388.031 87.0845 388.578 86.7564C389.124 86.4283 389.771 86.2642 390.516 86.2642C391.262 86.2642 391.908 86.4283 392.455 86.7564C393.002 87.0845 393.425 87.5452 393.723 88.1385C394.025 88.7318 394.176 89.4228 394.176 90.2116C394.176 91.0005 394.025 91.6899 393.723 92.2798C393.425 92.8698 393.002 93.3288 392.455 93.657C391.908 93.9851 391.262 94.1491 390.516 94.1491ZM390.526 92.7074C390.931 92.7074 391.269 92.5964 391.541 92.3743C391.812 92.1489 392.015 91.8473 392.147 91.4695C392.283 91.0916 392.351 90.6707 392.351 90.2067C392.351 89.7393 392.283 89.3168 392.147 88.9389C392.015 88.5578 391.812 88.2545 391.541 88.0291C391.269 87.8037 390.931 87.6911 390.526 87.6911C390.112 87.6911 389.767 87.8037 389.492 88.0291C389.22 88.2545 389.017 88.5578 388.881 88.9389C388.748 89.3168 388.682 89.7393 388.682 90.2067C388.682 90.6707 388.748 91.0916 388.881 91.4695C389.017 91.8473 389.22 92.1489 389.492 92.3743C389.767 92.5964 390.112 92.7074 390.526 92.7074ZM397.344 91.6037L397.339 89.4311H397.627L400.371 86.3636H402.474L399.099 90.1222H398.726L397.344 91.6037ZM395.703 94V83.8182H397.503V94H395.703ZM400.496 94L398.01 90.5249L399.223 89.2571L402.648 94H400.496Z" fill="#23262F"/><g clip-path="url(#clip3_14319_21963)"><path d="M395.995 40.5891C395.996 40.6445 395.988 40.6996 395.973 40.7529C395.97 40.7787 395.963 40.8041 395.954 40.8285C395.957 40.8316 395.954 40.8348 395.951 40.8379C395.945 40.8609 395.937 40.8831 395.926 40.9041C395.913 40.9368 395.897 40.9684 395.879 40.9985C395.804 41.1401 395.687 41.2555 395.545 41.3293L394.085 42.1545L393.959 42.2269L392.404 43.1025L392.046 43.3041L385.274 47.134L385.142 47.2096L382.562 48.6678L382.241 48.8474L381.923 49.0269L381.762 49.1182C381.709 49.1466 381.652 49.1781 381.596 49.2096C381.589 49.2127 381.586 49.2159 381.58 49.219C381.464 49.2803 381.34 49.3259 381.212 49.3545H381.209C381.053 49.3951 380.894 49.4152 380.733 49.4143C380.438 49.4167 380.147 49.3499 379.883 49.219C379.839 49.1938 379.795 49.1686 379.751 49.1466C379.735 49.1371 379.719 49.1277 379.7 49.1182L377.68 47.9749L377.406 47.8206L377.211 47.7104L377.17 47.6883L377.022 47.6033L377 47.5907L376.934 47.5529L376.887 47.5245L376.837 47.4962L376.774 47.4615L376.698 47.4206L376.661 47.3985L376.651 47.3922L376.55 47.3356L376.462 47.2852L376.437 47.2726L376.324 47.2096L370.619 43.9844L369.417 43.3041L369.058 43.1025L367.504 42.2269L367.339 42.1324L365.919 41.3293C365.778 41.2548 365.662 41.1396 365.586 40.9985C365.568 40.9673 365.552 40.9346 365.539 40.9009L365.472 40.5891C365.472 40.4422 365.511 40.2978 365.584 40.1705C365.658 40.0433 365.764 39.9378 365.891 39.8647L365.901 39.8552C365.907 39.8552 365.913 39.8489 365.919 39.8489L367.339 39.0489L367.505 38.9545L374.219 35.1592L374.653 34.9135L376.324 33.9718L376.438 33.9056L376.463 33.893L376.551 33.8426L376.652 33.7859L376.661 33.7797L376.699 33.7576L376.774 33.7167L376.837 33.682L376.888 33.6537L376.935 33.6285L377.001 33.5907L377.023 33.5781L377.171 33.493L377.212 33.471L377.407 33.3608L377.681 33.2033L379.701 32.0631C379.764 32.0285 379.824 31.9938 379.884 31.9623C380.147 31.8318 380.437 31.7639 380.732 31.7639C381.026 31.7639 381.316 31.8318 381.58 31.9623C381.643 31.9938 381.702 32.0285 381.762 32.0631L385.142 33.9718L387.244 35.1592L393.959 38.9545L394.085 39.0269L395.545 39.8489C395.555 39.8489 395.561 39.8552 395.567 39.8552L395.574 39.8647C395.702 39.9371 395.808 40.0424 395.883 40.1697C395.957 40.2971 395.995 40.4418 395.995 40.5891Z" fill="#123B6D"/><path d="M385.291 26.7244H376.472V34.9133L385.291 43.1023H394.11V34.9133L385.291 26.7244Z" fill="#28A8EA"/><path d="M385.291 43.1023V51.2913H376.472L376.315 51.159L376.293 51.1401V51.137L376.265 51.1118L376.208 51.0645L376.101 50.9732L376.091 50.9669L375.953 50.8472L375.95 50.844L375.915 50.8157L375.899 50.8031L375.883 50.7873L375.698 50.6299H375.694L375.657 50.5952L375.631 50.5732L375.616 50.5606L375.578 50.5291L375.483 50.4503L375.294 50.296L367.654 44.044L367.339 43.7858V34.9133H376.472L376.661 35.0897L376.709 35.1338L376.847 35.2629L376.945 35.3511L377.033 35.433L377.181 35.5716L377.222 35.6094L377.417 35.7921L385.291 43.1023Z" fill="#0364B8"/><path d="M376.472 43.1023H367.654V51.2913H376.472V43.1023Z" fill="#14447D"/><path d="M394.11 43.1023H385.291V51.2913H394.11V43.1023Z" fill="#0078D4"/><path d="M394.11 26.7244H385.291V34.9133H394.11V26.7244Z" fill="#50D9FF"/><path d="M376.472 26.7244H367.339V34.9133H376.472V26.7244Z" fill="#0078D4"/><path d="M385.291 34.9133H376.472V43.1023H385.291V34.9133Z" fill="#0078D4"/><path d="M369.033 22H392.416C392.638 22 392.859 22.0438 393.064 22.129C393.27 22.2141 393.457 22.339 393.614 22.4963C393.771 22.6537 393.896 22.8405 393.981 23.046C394.066 23.2516 394.11 23.472 394.11 23.6945V26.7244H367.339V23.6945C367.339 23.472 367.382 23.2516 367.468 23.046C367.553 22.8405 367.678 22.6537 367.835 22.4963C367.992 22.339 368.179 22.2141 368.385 22.129C368.59 22.0438 368.811 22 369.033 22Z" fill="#0358A7"/><path opacity="0.1" d="M394.11 40.8436L381.179 47.8606L381.118 47.8956C381.098 47.908 381.077 47.9193 381.055 47.9292C381.032 47.9403 381.008 47.95 380.984 47.9585L380.562 47.722L380.509 47.694C380.484 47.6814 380.458 47.6681 380.434 47.653L380.403 47.6335L377.842 46.2099L377.632 46.0918L377.461 45.9973L377.083 45.7847L367.339 40.3677V50.528H394.11V40.8436Z" fill="#0A2767"/><path opacity="0.1" d="M394.11 41.1588L381.179 48.1758L381.118 48.2107C381.098 48.2232 381.077 48.2344 381.055 48.2444C381.032 48.2555 381.008 48.2652 380.984 48.2737L380.562 48.0372L380.509 48.0092C380.484 47.9966 380.458 47.9833 380.434 47.9682L380.403 47.9487L377.842 46.5251L377.632 46.407L377.461 46.3125L377.083 46.0999L367.339 40.6829V50.8432H394.11V41.1588Z" fill="#0A2767"/><path opacity="0.1" d="M394.11 41.4737L381.179 48.4907L381.118 48.5257C381.098 48.5381 381.077 48.5494 381.055 48.5594C381.032 48.5704 381.008 48.5802 380.984 48.5887L380.562 48.3521L380.509 48.3241C380.484 48.3115 380.458 48.2983 380.434 48.2832L380.403 48.2636L377.842 46.84L377.632 46.7219L377.461 46.6274L377.083 46.4148L367.339 40.9978V51.1581H394.11V41.4737Z" fill="#0A2767"/><path opacity="0.1" d="M394.11 41.7887L381.179 48.8057L381.118 48.8406C381.098 48.8531 381.077 48.8643 381.055 48.8743C381.032 48.8853 381.008 48.8951 380.984 48.9036L380.562 48.6671L380.509 48.639C380.484 48.6264 380.458 48.6132 380.434 48.5981L380.403 48.5786L377.842 47.1549L377.632 47.0368L377.461 46.9423L377.083 46.7298L367.339 41.3127V51.4731H394.11V41.7887Z" fill="#0A2767"/><path d="M395.572 41.2888L395.555 41.2979L395.551 41.3005L381.756 48.7855C381.696 48.8224 381.634 48.8559 381.571 48.886C381.305 49.0108 381.015 49.0756 380.722 49.0756C380.429 49.0756 380.139 49.0108 379.873 48.886C379.81 48.8559 379.748 48.8223 379.688 48.7855L380.338 53.4526L394.088 57.5619C394.489 57.5636 394.881 57.4428 395.211 57.2154C395.451 57.0525 395.649 56.8335 395.786 56.5771C395.923 56.3208 395.996 56.035 395.998 55.7442V40.5896C395.997 40.7337 395.956 40.8747 395.881 40.9978C395.806 41.1209 395.699 41.2214 395.572 41.2888Z" fill="#1490DF"/><path opacity="0.05" d="M382.293 48.5081L381.78 48.7862C381.72 48.8229 381.658 48.8565 381.595 48.8866C381.329 49.0115 381.039 49.0762 380.746 49.0762C380.453 49.0762 380.163 49.0115 379.898 48.8866C379.834 48.8565 379.773 48.8229 379.713 48.7862L380.362 53.4533L394.112 57.5625C394.513 57.5643 394.905 57.4434 395.235 57.2161C395.602 56.9655 395.864 56.5895 395.972 56.1591L382.293 48.5081Z" fill="black"/><path opacity="0.05" d="M395.867 56.4603L381.965 48.6855L381.78 48.786C381.72 48.8228 381.658 48.8563 381.595 48.8865C381.329 49.0114 381.039 49.0761 380.746 49.0761C380.453 49.0761 380.163 49.0114 379.898 48.8865C379.834 48.8563 379.773 48.8228 379.713 48.786L380.362 53.4531L394.112 57.5624C394.513 57.5641 394.905 57.4432 395.235 57.2159C395.511 57.0261 395.729 56.7649 395.867 56.4603Z" fill="black"/><path opacity="0.05" d="M395.713 56.735L381.64 48.866L381.595 48.8881C381.329 49.0129 381.039 49.0777 380.746 49.0777C380.453 49.0777 380.163 49.0129 379.898 48.8881C379.834 48.8579 379.773 48.8244 379.713 48.7876L380.362 53.4547L394.112 57.564C394.513 57.5657 394.905 57.4448 395.235 57.2175C395.423 57.0871 395.584 56.9236 395.713 56.735Z" fill="black"/><path opacity="0.05" d="M395.51 56.9824L381.379 49.0794L381.309 49.042L381.253 49.0105C380.801 49.1294 380.321 49.0855 379.897 48.8864C379.834 48.8562 379.772 48.8226 379.712 48.7859L380.362 53.453L394.112 57.5623C394.513 57.564 394.905 57.4431 395.235 57.2158C395.334 57.1469 395.426 57.0688 395.51 56.9824Z" fill="black"/><path d="M395.254 57.1999C395.213 57.2282 395.172 57.2566 395.131 57.2818C395.09 57.307 395.046 57.329 395.002 57.3511C394.951 57.3763 394.901 57.3983 394.85 57.4204C394.847 57.4204 394.844 57.4235 394.841 57.4235C394.784 57.4445 394.728 57.4634 394.671 57.4802C394.607 57.5022 394.542 57.5181 394.476 57.5275C394.461 57.5321 394.447 57.5353 394.432 57.5369C394.397 57.5432 394.362 57.5464 394.324 57.5495C394.257 57.5585 394.188 57.5627 394.12 57.5621H367.386C367.137 57.565 366.891 57.5189 366.66 57.4265C366.429 57.334 366.219 57.197 366.041 57.0233C365.863 56.8496 365.721 56.6425 365.623 56.414C365.526 56.1854 365.474 55.9398 365.471 55.6912V40.5889L365.906 40.8314L365.912 40.8345C365.915 40.8377 365.915 40.8377 365.918 40.8377L367.339 41.6282L369.991 43.1023L376.472 46.7054L376.661 46.8125L376.709 46.8377L376.847 46.9164L376.945 46.97L377.033 47.0172L377.181 47.1023L377.222 47.1243L377.417 47.2314L379.761 48.5353C379.82 48.5731 379.883 48.6078 379.946 48.6393L380.728 49.0771L381.222 49.3542H381.225L383.326 50.529L383.89 50.844L384.454 51.159L384.69 51.2912L385.017 51.4739L395.254 57.1999Z" fill="#28A8EA"/><path opacity="0.05" d="M377.417 31.1339V49.9119C377.418 50.1231 377.378 50.3326 377.301 50.5292C377.258 50.6397 377.203 50.7453 377.137 50.8441C377.061 50.961 376.97 51.067 376.866 51.1591C376.815 51.2066 376.762 51.2508 376.705 51.2914C376.604 51.3638 376.495 51.4251 376.381 51.4741C376.173 51.5616 375.949 51.6066 375.723 51.6063H365.449V50.3465H365.471V40.589C365.471 40.442 365.509 40.2976 365.583 40.1704C365.656 40.0431 365.762 39.9377 365.89 39.8646L365.899 39.8552C365.905 39.8552 365.912 39.8489 365.918 39.8489L367.339 39.0489V29.2441H375.723C375.988 29.2458 376.247 29.321 376.472 29.4615C376.757 29.6391 376.993 29.8852 377.158 30.1773C377.323 30.4695 377.412 30.7984 377.417 31.1339Z" fill="black"/><path opacity="0.075" d="M377.181 31.1653V49.5968C377.183 49.9272 377.089 50.251 376.91 50.5291C376.837 50.6457 376.748 50.7517 376.646 50.844C376.593 50.8972 376.535 50.9447 376.472 50.9857C376.408 51.0348 376.338 51.077 376.265 51.1117C376.233 51.1306 376.202 51.1432 376.17 51.159C375.963 51.2468 375.74 51.2918 375.515 51.2913H365.449V50.3464H365.471V40.5889C365.471 40.4419 365.509 40.2975 365.583 40.1703C365.656 40.043 365.762 39.9375 365.89 39.8645L365.899 39.855C365.905 39.855 365.912 39.8487 365.918 39.8487L367.339 39.0487V29.3228H375.487C375.848 29.3274 376.197 29.4577 376.472 29.6913C376.691 29.8704 376.868 30.0952 376.99 30.3498C377.112 30.6044 377.178 30.8828 377.181 31.1653Z" fill="black"/><path opacity="0.1" d="M376.945 31.1937V49.2819C376.95 49.7292 376.781 50.1609 376.472 50.4851C376.457 50.5006 376.442 50.5153 376.425 50.5292C376.291 50.6615 376.134 50.7682 375.962 50.8441C375.959 50.8441 375.956 50.8473 375.953 50.8473C375.749 50.9326 375.531 50.9765 375.31 50.9764H365.449V50.3465H365.471V40.589C365.471 40.442 365.509 40.2976 365.583 40.1704C365.656 40.0431 365.762 39.9376 365.89 39.8646L365.899 39.8552C365.905 39.8552 365.912 39.8489 365.918 39.8489L367.339 39.0489V29.4016H375.25C375.483 29.405 375.712 29.4579 375.923 29.5568C376.134 29.6556 376.321 29.7981 376.472 29.9748C376.774 30.3097 376.942 30.7433 376.945 31.1937Z" fill="black"/><path opacity="0.125" d="M376.709 31.222V48.9668C376.711 49.2837 376.629 49.5954 376.472 49.8708C376.308 50.1612 376.055 50.3918 375.751 50.529C375.713 50.5448 375.672 50.5605 375.631 50.5731C375.462 50.6317 375.285 50.6615 375.105 50.6613H365.449V50.3464H365.471V40.5889C365.471 40.4419 365.509 40.2975 365.583 40.1702C365.656 40.043 365.762 39.9375 365.89 39.8645L365.899 39.855C365.905 39.855 365.912 39.8487 365.918 39.8487L367.339 39.0487V29.4802H375.014C375.312 29.4838 375.604 29.5661 375.86 29.7188C376.116 29.8714 376.327 30.089 376.472 30.3495C376.627 30.6143 376.708 30.9154 376.709 31.222Z" fill="black"/><path opacity="0.2" d="M376.472 31.2536V48.652C376.491 49.0188 376.384 49.3811 376.17 49.6797C375.957 49.9783 375.648 50.1956 375.294 50.2961C375.165 50.3306 375.032 50.3476 374.898 50.3465H365.471V40.589C365.471 40.442 365.509 40.2976 365.583 40.1704C365.656 40.0431 365.762 39.9376 365.89 39.8646L365.899 39.8551C365.905 39.8551 365.912 39.8488 365.918 39.8488L367.339 39.0488V29.5591H374.778C375.227 29.5592 375.658 29.7378 375.976 30.0556C376.294 30.3733 376.472 30.8042 376.472 31.2536Z" fill="black"/><path d="M374.778 29.5591H357.694C356.759 29.5591 356 30.3177 356 31.2536V48.337C356 49.2729 356.759 50.0315 357.694 50.0315H374.778C375.714 50.0315 376.472 49.2729 376.472 48.337V31.2536C376.472 30.3177 375.714 29.5591 374.778 29.5591Z" fill="url(#paint3_linear_14319_21963)"/><path d="M361.682 37.0055C362.073 36.1743 362.703 35.4786 363.491 35.0078C364.365 34.5076 365.36 34.2584 366.366 34.2874C367.299 34.2671 368.219 34.5034 369.026 34.9706C369.785 35.4231 370.397 36.0864 370.786 36.8799C371.21 37.7543 371.422 38.7165 371.403 39.6881C371.424 40.7037 371.206 41.7099 370.768 42.6263C370.37 43.4479 369.74 44.1349 368.955 44.6024C368.117 45.0843 367.162 45.327 366.195 45.3041C365.243 45.3268 364.303 45.0879 363.477 44.6134C362.711 44.1602 362.092 43.4961 361.694 42.7003C361.267 41.8384 361.053 40.8868 361.071 39.9252C361.052 38.9183 361.261 37.9202 361.682 37.0055ZM363.61 41.6969C363.818 42.2225 364.171 42.6785 364.628 43.0118C365.093 43.3372 365.65 43.5051 366.218 43.4909C366.822 43.5146 367.418 43.3413 367.915 42.997C368.366 42.6636 368.71 42.2051 368.903 41.6783C369.12 41.0912 369.227 40.4691 369.218 39.8433C369.225 39.2116 369.125 38.5832 368.921 37.9851C368.742 37.4476 368.411 36.9734 367.968 36.6194C367.484 36.2578 366.89 36.0742 366.286 36.0994C365.706 36.0844 365.136 36.2535 364.658 36.5826C364.192 36.9168 363.832 37.3768 363.618 37.9085C363.145 39.1267 363.143 40.4772 363.611 41.6972L363.61 41.6969Z" fill="white"/></g><path d="M459.551 88.9091C459.551 90.0062 459.346 90.9458 458.935 91.728C458.527 92.5069 457.971 93.1035 457.265 93.5178C456.562 93.9321 455.765 94.1392 454.873 94.1392C453.982 94.1392 453.183 93.9321 452.477 93.5178C451.774 93.1001 451.217 92.5019 450.806 91.723C450.399 90.9408 450.195 90.0028 450.195 88.9091C450.195 87.812 450.399 86.8741 450.806 86.0952C451.217 85.313 451.774 84.7147 452.477 84.3004C453.183 83.8861 453.982 83.679 454.873 83.679C455.765 83.679 456.562 83.8861 457.265 84.3004C457.971 84.7147 458.527 85.313 458.935 86.0952C459.346 86.8741 459.551 87.812 459.551 88.9091ZM457.697 88.9091C457.697 88.1368 457.576 87.4856 457.334 86.9553C457.096 86.4216 456.764 86.0189 456.34 85.7472C455.916 85.4721 455.427 85.3345 454.873 85.3345C454.32 85.3345 453.831 85.4721 453.407 85.7472C452.982 86.0189 452.649 86.4216 452.407 86.9553C452.169 87.4856 452.049 88.1368 452.049 88.9091C452.049 89.6813 452.169 90.3343 452.407 90.8679C452.649 91.3982 452.982 91.8009 453.407 92.076C453.831 92.3478 454.32 92.4837 454.873 92.4837C455.427 92.4837 455.916 92.3478 456.34 92.076C456.764 91.8009 457.096 91.3982 457.334 90.8679C457.576 90.3343 457.697 89.6813 457.697 88.9091ZM463.015 89.5256V94H461.216V86.3636H462.936V87.6612H463.025C463.201 87.2337 463.481 86.8939 463.866 86.642C464.253 86.3902 464.732 86.2642 465.302 86.2642C465.829 86.2642 466.288 86.3769 466.68 86.6023C467.074 86.8277 467.379 87.1541 467.594 87.5817C467.813 88.0092 467.921 88.5279 467.917 89.1378V94H466.118V89.4162C466.118 88.9058 465.985 88.5064 465.72 88.218C465.458 87.9297 465.095 87.7855 464.631 87.7855C464.316 87.7855 464.036 87.8551 463.791 87.9943C463.549 88.1302 463.358 88.3274 463.219 88.5859C463.083 88.8445 463.015 89.1577 463.015 89.5256ZM473.128 94.1491C472.362 94.1491 471.701 93.9901 471.144 93.6719C470.59 93.3504 470.165 92.8963 469.866 92.3097C469.568 91.7197 469.419 91.0253 469.419 90.2266C469.419 89.4411 469.568 88.7517 469.866 88.1584C470.168 87.5618 470.589 87.0978 471.129 86.7663C471.669 86.4316 472.304 86.2642 473.033 86.2642C473.504 86.2642 473.948 86.3404 474.366 86.4929C474.787 86.642 475.158 86.8741 475.479 87.1889C475.804 87.5038 476.059 87.9048 476.245 88.392C476.43 88.8759 476.523 89.4527 476.523 90.1222V90.674H470.264V89.4609H474.798C474.795 89.1162 474.72 88.8097 474.574 88.5412C474.429 88.2694 474.225 88.0556 473.963 87.8999C473.704 87.7441 473.403 87.6662 473.058 87.6662C472.69 87.6662 472.367 87.7557 472.089 87.9347C471.81 88.1103 471.593 88.3423 471.437 88.6307C471.285 88.9157 471.207 89.2289 471.204 89.5703V90.6293C471.204 91.0734 471.285 91.4545 471.447 91.7727C471.61 92.0876 471.837 92.3295 472.128 92.4986C472.42 92.6643 472.761 92.7472 473.153 92.7472C473.414 92.7472 473.651 92.7107 473.863 92.6378C474.076 92.5616 474.26 92.4505 474.415 92.3047C474.571 92.1589 474.689 91.9782 474.768 91.7628L476.449 91.9517C476.343 92.3958 476.14 92.7836 475.842 93.1151C475.547 93.4432 475.169 93.6984 474.709 93.8807C474.248 94.0597 473.721 94.1491 473.128 94.1491ZM486.493 83.8182V94H484.852L480.054 87.0646H479.97V94H478.125V83.8182H479.776L484.569 90.7585H484.658V83.8182H486.493ZM491.754 94.1491C491.008 94.1491 490.362 93.9851 489.815 93.657C489.268 93.3288 488.844 92.8698 488.542 92.2798C488.244 91.6899 488.095 91.0005 488.095 90.2116C488.095 89.4228 488.244 88.7318 488.542 88.1385C488.844 87.5452 489.268 87.0845 489.815 86.7564C490.362 86.4283 491.008 86.2642 491.754 86.2642C492.499 86.2642 493.146 86.4283 493.693 86.7564C494.24 87.0845 494.662 87.5452 494.96 88.1385C495.262 88.7318 495.413 89.4228 495.413 90.2116C495.413 91.0005 495.262 91.6899 494.96 92.2798C494.662 92.8698 494.24 93.3288 493.693 93.657C493.146 93.9851 492.499 94.1491 491.754 94.1491ZM491.764 92.7074C492.168 92.7074 492.506 92.5964 492.778 92.3743C493.05 92.1489 493.252 91.8473 493.384 91.4695C493.52 91.0916 493.588 90.6707 493.588 90.2067C493.588 89.7393 493.52 89.3168 493.384 88.9389C493.252 88.5578 493.05 88.2545 492.778 88.0291C492.506 87.8037 492.168 87.6911 491.764 87.6911C491.349 87.6911 491.005 87.8037 490.73 88.0291C490.458 88.2545 490.254 88.5578 490.118 88.9389C489.985 89.3168 489.919 89.7393 489.919 90.2067C489.919 90.6707 489.985 91.0916 490.118 91.4695C490.254 91.8473 490.458 92.1489 490.73 92.3743C491.005 92.5964 491.349 92.7074 491.764 92.7074ZM500.754 86.3636V87.7557H496.364V86.3636H500.754ZM497.447 84.5341H499.247V91.7031C499.247 91.9451 499.284 92.1307 499.357 92.2599C499.433 92.3859 499.532 92.4721 499.655 92.5185C499.777 92.5649 499.913 92.5881 500.062 92.5881C500.175 92.5881 500.278 92.5798 500.371 92.5632C500.467 92.5466 500.54 92.5317 500.589 92.5185L500.893 93.9254C500.797 93.9586 500.659 93.995 500.48 94.0348C500.304 94.0746 500.089 94.0978 499.834 94.1044C499.383 94.1177 498.977 94.0497 498.616 93.9006C498.254 93.7481 497.968 93.5128 497.756 93.1946C497.547 92.8764 497.444 92.4787 497.447 92.0014V84.5341ZM505.557 94.1491C504.792 94.1491 504.131 93.9901 503.574 93.6719C503.02 93.3504 502.594 92.8963 502.296 92.3097C501.998 91.7197 501.849 91.0253 501.849 90.2266C501.849 89.4411 501.998 88.7517 502.296 88.1584C502.598 87.5618 503.019 87.0978 503.559 86.7663C504.099 86.4316 504.734 86.2642 505.463 86.2642C505.934 86.2642 506.378 86.3404 506.795 86.4929C507.216 86.642 507.587 86.8741 507.909 87.1889C508.234 87.5038 508.489 87.9048 508.675 88.392C508.86 88.8759 508.953 89.4527 508.953 90.1222V90.674H502.694V89.4609H507.228C507.224 89.1162 507.15 88.8097 507.004 88.5412C506.858 88.2694 506.654 88.0556 506.393 87.8999C506.134 87.7441 505.832 87.6662 505.488 87.6662C505.12 87.6662 504.797 87.7557 504.518 87.9347C504.24 88.1103 504.023 88.3423 503.867 88.6307C503.715 88.9157 503.637 89.2289 503.633 89.5703V90.6293C503.633 91.0734 503.715 91.4545 503.877 91.7727C504.039 92.0876 504.266 92.3295 504.558 92.4986C504.85 92.6643 505.191 92.7472 505.582 92.7472C505.844 92.7472 506.081 92.7107 506.293 92.6378C506.505 92.5616 506.689 92.4505 506.845 92.3047C507.001 92.1589 507.118 91.9782 507.198 91.7628L508.878 91.9517C508.772 92.3958 508.57 92.7836 508.272 93.1151C507.977 93.4432 507.599 93.6984 507.138 93.8807C506.678 94.0597 506.151 94.1491 505.557 94.1491Z" fill="#23262F"/><g clip-path="url(#clip4_14319_21963)"><path d="M490.698 58.2093H471.006C470.065 58.2093 469.302 57.4467 469.302 56.506V22.7033C469.302 21.7626 470.065 21 471.006 21H498.297C499.237 21 500 21.7626 500 22.7033V30.3023L490.698 58.2093Z" fill="#CA64EA"/><path d="M500 39.6045L495.349 42.3952L490.698 39.6045V30.3022H500V39.6045H500Z" fill="#AE4BD5"/><path d="M500 48.9071L495.349 51.6978L490.698 48.9071V39.6047H500V48.9071Z" fill="#9332BF"/><path d="M490.698 48.907H500V56.4651C500 57.4284 499.219 58.2093 498.256 58.2093H490.698V48.907Z" fill="#7719AA"/><path opacity="0.2" d="M480.62 28.4419H469.302V51.6977H480.62C481.561 51.6946 482.323 50.933 482.326 49.9926V30.147C482.323 29.2066 481.561 28.445 480.62 28.4419Z" fill="black"/><path opacity="0.2" d="M479.69 29.3721H469.302V52.6279H479.69C480.631 52.6248 481.392 51.8632 481.395 50.9228V31.0772C481.392 30.1368 480.631 29.3751 479.69 29.3721Z" fill="black"/><path opacity="0.5" d="M479.69 29.3721H469.302V50.7674H479.69C480.631 50.7644 481.392 50.0027 481.395 49.0623V31.0772C481.392 30.1368 480.631 29.3751 479.69 29.3721Z" fill="black"/><path opacity="0.5" d="M478.76 29.3721H469.302V50.7674H478.76C479.7 50.7644 480.462 50.0027 480.465 49.0623V31.0772C480.462 30.1368 479.7 29.3751 478.76 29.3721Z" fill="black"/><path d="M461.705 29.3721H478.76C479.702 29.3721 480.465 30.1355 480.465 31.0772V48.1321C480.465 49.0738 479.702 49.8372 478.76 49.8372H461.705C460.763 49.8372 460 49.0738 460 48.1321V31.0772C460 30.1355 460.763 29.3721 461.705 29.3721Z" fill="url(#paint4_linear_14319_21963)"/><path d="M465.606 34.0623H467.917L472.46 41.4112C472.666 41.7405 472.821 42.0056 472.925 42.2065H472.954C472.898 41.7063 472.876 41.2028 472.887 40.6995V34.0623H474.86V45.147H472.696L467.983 37.5944C467.824 37.3452 467.683 37.0843 467.563 36.8139H467.526C467.573 37.3639 467.593 37.9159 467.584 38.4679V45.147H465.606V34.0623Z" fill="white"/></g><defs><linearGradient id="paint0_linear_14319_21963" x1="45.8218" y1="27.5677" x2="60.1782" y2="52.4323" gradientUnits="userSpaceOnUse"><stop stop-color="#2368C4"/><stop offset="0.5" stop-color="#1A5DBE"/><stop offset="1" stop-color="#1146AC"/></linearGradient><linearGradient id="paint1_linear_14319_21963" x1="151.555" y1="28.0397" x2="164.91" y2="51.1695" gradientUnits="userSpaceOnUse"><stop stop-color="#18884F"/><stop offset="0.5" stop-color="#117E43"/><stop offset="1" stop-color="#0B6631"/></linearGradient><linearGradient id="paint2_linear_14319_21963" x1="255.555" y1="28.0397" x2="268.91" y2="51.1696" gradientUnits="userSpaceOnUse"><stop stop-color="#CA4C28"/><stop offset="0.5" stop-color="#C5401E"/><stop offset="1" stop-color="#B62F14"/></linearGradient><linearGradient id="paint3_linear_14319_21963" x1="359.555" y1="28.2227" x2="372.918" y2="51.3679" gradientUnits="userSpaceOnUse"><stop stop-color="#1784D9"/><stop offset="0.5" stop-color="#107AD5"/><stop offset="1" stop-color="#0A63C9"/></linearGradient><linearGradient id="paint4_linear_14319_21963" x1="463.555" y1="28.0397" x2="476.91" y2="51.1695" gradientUnits="userSpaceOnUse"><stop stop-color="#8324B3"/><stop offset="0.5" stop-color="#7A1BAC"/><stop offset="1" stop-color="#621197"/></linearGradient><clipPath id="clip0_14319_21963"><rect width="43" height="40" fill="white" transform="translate(42 20)"/></clipPath><clipPath id="clip1_14319_21963"><rect width="40" height="37.2093" fill="white" transform="translate(148 21)"/></clipPath><clipPath id="clip2_14319_21963"><rect width="40" height="37.2093" fill="white" transform="translate(252 21)"/></clipPath><clipPath id="clip3_14319_21963"><rect width="40" height="35.5905" fill="white" transform="translate(356 22)"/></clipPath><clipPath id="clip4_14319_21963"><rect width="40" height="37.2093" fill="white" transform="translate(460 21)"/></clipPath></defs></svg>